<svg width="163" height="58" viewBox="0 0 163 58" fill="none" xmlns="http://www.w3.org/2000/svg">
<path d="M156.576 0H6C2.68629 0 0 2.68629 0 6V52C0 55.3137 2.68629 58 6 58H156.576C159.89 58 162.576 55.3137 162.576 52V6C162.576 2.68629 159.89 0 156.576 0Z" fill="#19145C"/>
<path d="M156.576 0H6C2.68629 0 0 2.68629 0 6V52C0 55.3137 2.68629 58 6 58H156.576C159.89 58 162.576 55.3137 162.576 52V6C162.576 2.68629 159.89 0 156.576 0Z" fill="#19145C"/>
<path d="M58.4147 17.6484C58.4147 18.55 58.1382 19.2721 57.5935 19.8107C56.9673 20.4491 56.1516 20.7704 55.1521 20.7704C54.1968 20.7704 53.3812 20.4437 52.7121 19.7999C52.0416 19.1466 51.707 18.3449 51.707 17.3852C51.707 16.4255 52.0416 15.6238 52.7121 14.9759C53.3812 14.3266 54.1968 14 55.1521 14C55.6277 14 56.0811 14.0958 56.5138 14.274C56.9452 14.4535 57.2963 14.6965 57.5507 14.9961L56.9728 15.5657C56.5291 15.0542 55.9249 14.8018 55.1521 14.8018C54.4554 14.8018 53.8512 15.0393 53.3383 15.5185C52.831 15.999 52.5766 16.6212 52.5766 17.3852C52.5766 18.1491 52.831 18.7768 53.3383 19.2573C53.8512 19.7311 54.4554 19.974 55.1521 19.974C55.8917 19.974 56.5138 19.7311 57.0046 19.2519C57.3281 18.9347 57.512 18.4974 57.5604 17.9386H55.1521V17.1584H58.365C58.4037 17.3271 58.4147 17.4905 58.4147 17.6484Z" fill="white" stroke="white" stroke-width="0.4" stroke-miterlimit="10"/>
<path d="M63.5109 14.9434H60.493V16.9951H63.2137V17.7752H60.493V19.8269H63.5109V20.6219H59.6387V14.1484H63.5109V14.9434Z" fill="white" stroke="white" stroke-width="0.4" stroke-miterlimit="10"/>
<path d="M67.1077 20.6219H66.2534V14.9434H64.4023V14.1484H68.9602V14.9434H67.1077V20.6219Z" fill="white" stroke="white" stroke-width="0.4" stroke-miterlimit="10"/>
<path d="M72.2598 20.6219V14.1484H73.1127V20.6219H72.2598Z" fill="white" stroke="white" stroke-width="0.4" stroke-miterlimit="10"/>
<path d="M76.893 20.6219H76.0455V14.9434H74.1875V14.1484H78.751V14.9434H76.893V20.6219Z" fill="white" stroke="white" stroke-width="0.4" stroke-miterlimit="10"/>
<path d="M87.3807 19.7891C86.7268 20.4437 85.9167 20.7704 84.9504 20.7704C83.9785 20.7704 83.1684 20.4437 82.5145 19.7891C81.862 19.1358 81.5371 18.3341 81.5371 17.3852C81.5371 16.4363 81.862 15.6346 82.5145 14.9813C83.1684 14.3266 83.9785 14 84.9504 14C85.9112 14 86.7213 14.3266 87.3752 14.9867C88.0333 15.6454 88.3581 16.4417 88.3581 17.3852C88.3581 18.3341 88.0333 19.1358 87.3807 19.7891ZM83.1463 19.2465C83.6384 19.7311 84.237 19.974 84.9504 19.974C85.6582 19.974 86.2623 19.7311 86.749 19.2465C87.2397 18.7619 87.4886 18.1397 87.4886 17.3852C87.4886 16.6307 87.2397 16.0084 86.749 15.5239C86.2623 15.0393 85.6582 14.7964 84.9504 14.7964C84.237 14.7964 83.6384 15.0393 83.1463 15.5239C82.6555 16.0084 82.4066 16.6307 82.4066 17.3852C82.4066 18.1397 82.6555 18.7619 83.1463 19.2465Z" fill="white" stroke="white" stroke-width="0.4" stroke-miterlimit="10"/>
<path d="M89.5566 20.6219V14.1484H90.5935L93.8174 19.183H93.8547L93.8174 17.9385V14.1484H94.6704V20.6219H93.78L90.4041 15.3389H90.3667L90.4041 16.5888V20.6219H89.5566Z" fill="white" stroke="white" stroke-width="0.4" stroke-miterlimit="10"/>
<path d="M81.3275 30.0757C78.7299 30.0757 76.6078 32.0058 76.6078 34.6689C76.6078 37.3104 78.7299 39.2608 81.3275 39.2608C83.9307 39.2608 86.0528 37.3104 86.0528 34.6689C86.0528 32.0058 83.9307 30.0757 81.3275 30.0757ZM81.3275 37.4521C79.9022 37.4521 78.676 36.3035 78.676 34.6689C78.676 33.0128 79.9022 31.8844 81.3275 31.8844C82.7528 31.8844 83.9846 33.0128 83.9846 34.6689C83.9846 36.3035 82.7528 37.4521 81.3275 37.4521ZM71.0296 30.0757C68.4264 30.0757 66.3098 32.0058 66.3098 34.6689C66.3098 37.3104 68.4264 39.2608 71.0296 39.2608C73.6313 39.2608 75.7493 37.3104 75.7493 34.6689C75.7493 32.0058 73.6313 30.0757 71.0296 30.0757ZM71.0296 37.4521C69.6029 37.4521 68.3725 36.3035 68.3725 34.6689C68.3725 33.0128 69.6029 31.8844 71.0296 31.8844C72.4549 31.8844 73.6811 33.0128 73.6811 34.6689C73.6811 36.3035 72.4549 37.4521 71.0296 37.4521ZM58.7754 31.4835V33.4352H63.5491C63.4094 34.5258 63.0362 35.3276 62.4638 35.8864C61.7671 36.5613 60.6818 37.3104 58.7754 37.3104C55.8377 37.3104 53.5373 34.9956 53.5373 32.1273C53.5373 29.2591 55.8377 26.9443 58.7754 26.9443C60.3639 26.9443 61.5196 27.5503 62.3726 28.3359L63.7813 26.9605C62.5883 25.8483 61.0012 24.9939 58.7754 24.9939C54.7469 24.9939 51.3613 28.1941 51.3613 32.1273C51.3613 36.0605 54.7469 39.2608 58.7754 39.2608C60.9528 39.2608 62.5882 38.5643 63.8739 37.2577C65.1914 35.9714 65.602 34.1628 65.602 32.7023C65.602 32.2488 65.5633 31.8317 65.4942 31.4835H58.7754ZM108.884 32.9966C108.495 31.9694 107.297 30.0757 104.855 30.0757C102.436 30.0757 100.422 31.937 100.422 34.6689C100.422 37.2415 102.415 39.2608 105.088 39.2608C107.248 39.2608 108.495 37.9745 109.008 37.2253L107.405 36.182C106.87 36.9459 106.141 37.4521 105.088 37.4521C104.041 37.4521 103.29 36.9837 102.809 36.0605L109.101 33.5189L108.884 32.9966ZM102.469 34.5258C102.415 32.755 103.878 31.8479 104.926 31.8479C105.747 31.8479 106.444 32.2488 106.676 32.8224L102.469 34.5258ZM97.3558 38.9814H99.4239V25.4838H97.3558V38.9814ZM93.9687 31.0988H93.8996C93.4351 30.5616 92.549 30.0757 91.4264 30.0757C89.0707 30.0757 86.9168 32.0949 86.9168 34.6838C86.9168 37.2577 89.0707 39.2608 91.4264 39.2608C92.549 39.2608 93.4351 38.7708 93.8996 38.2174H93.9687V38.8761C93.9687 40.6321 93.0079 41.5756 91.4582 41.5756C90.1946 41.5756 89.4108 40.6848 89.0873 39.9357L87.2887 40.6686C87.8071 41.886 89.1799 43.3843 91.4582 43.3843C93.883 43.3843 95.9291 41.9913 95.9291 38.6021V30.3551H93.9687V31.0988ZM91.6034 37.4521C90.178 37.4521 88.985 36.2873 88.985 34.6838C88.985 33.0654 90.178 31.8844 91.6034 31.8844C93.0079 31.8844 94.1153 33.0654 94.1153 34.6838C94.1153 36.2873 93.0079 37.4521 91.6034 37.4521ZM118.567 25.4838H113.62V38.9814H115.683V33.8672H118.567C120.857 33.8672 123.104 32.2488 123.104 29.6748C123.104 27.1022 120.852 25.4838 118.567 25.4838ZM118.621 31.9896H115.683V27.3613H118.621C120.161 27.3613 121.04 28.6099 121.04 29.6748C121.04 30.7195 120.161 31.9896 118.621 31.9896ZM131.371 30.0501C129.881 30.0501 128.331 30.6925 127.694 32.1165L129.524 32.8656C129.918 32.1165 130.642 31.8736 131.408 31.8736C132.478 31.8736 133.564 32.5012 133.58 33.6094V33.7511C133.207 33.5405 132.408 33.2287 131.425 33.2287C129.454 33.2287 127.445 34.2883 127.445 36.2657C127.445 38.0743 129.06 39.2392 130.875 39.2392C132.263 39.2392 133.029 38.6277 133.51 37.9164H133.58V38.9598H135.572V33.7821C135.572 31.389 133.742 30.0501 131.371 30.0501ZM131.122 37.4467C130.448 37.4467 129.507 37.1201 129.507 36.3035C129.507 35.2588 130.68 34.8579 131.695 34.8579C132.603 34.8579 133.029 35.0536 133.58 35.3114C133.418 36.5613 132.317 37.4467 131.122 37.4467ZM142.83 30.3456L140.459 36.1968H140.389L137.938 30.3456H135.713L139.396 38.5225L137.295 43.0725H139.45L145.125 30.3456H142.83ZM124.238 38.9814H126.306V25.4838H124.238V38.9814Z" fill="white"/>
<path d="M17.5129 14.7274C17.188 15.0595 17 15.5764 17 16.2459V40.1258C17 40.7953 17.188 41.3122 17.5129 41.6443L17.5931 41.7172L31.2988 28.3411V28.0252L17.5931 14.6492L17.5129 14.7274Z" fill="url(#paint0_linear)"/>
<path d="M35.8623 32.8022L31.2988 28.3413V28.0254L35.8678 23.5645L35.9701 23.6225L41.3811 26.6284C42.9253 27.4815 42.9253 28.8852 41.3811 29.7437L35.9701 32.7442L35.8623 32.8022Z" fill="url(#paint1_linear)"/>
<path d="M35.971 32.744L31.2996 28.1832L17.5137 41.6443C18.0266 42.1707 18.863 42.2342 19.8141 41.7078L35.971 32.744Z" fill="url(#paint2_linear)"/>
<path d="M35.971 23.6223L19.8141 14.6586C18.863 14.1376 18.0266 14.201 17.5137 14.7274L31.2996 28.1831L35.971 23.6223Z" fill="url(#paint3_linear)"/>
<defs>
<linearGradient id="paint0_linear" x1="30.0819" y1="40.3745" x2="11.9654" y2="21.819" gradientUnits="userSpaceOnUse">
<stop stop-color="#00A0FF"/>
<stop offset="0.0066" stop-color="#00A1FF"/>
<stop offset="0.2601" stop-color="#00BEFF"/>
<stop offset="0.5122" stop-color="#00D2FF"/>
<stop offset="0.7604" stop-color="#00DFFF"/>
<stop offset="1" stop-color="#00E3FF"/>
</linearGradient>
<linearGradient id="paint1_linear" x1="43.3919" y1="28.1818" x2="16.6309" y2="28.1818" gradientUnits="userSpaceOnUse">
<stop stop-color="#FFE000"/>
<stop offset="0.4087" stop-color="#FFBD00"/>
<stop offset="0.7754" stop-color="#FFA500"/>
<stop offset="1" stop-color="#FF9C00"/>
</linearGradient>
<linearGradient id="paint2_linear" x1="33.4308" y1="25.7039" x2="8.86332" y2="0.541122" gradientUnits="userSpaceOnUse">
<stop stop-color="#FF3A44"/>
<stop offset="1" stop-color="#C31162"/>
</linearGradient>
<linearGradient id="paint3_linear" x1="14.0435" y1="49.589" x2="25.014" y2="38.3528" gradientUnits="userSpaceOnUse">
<stop stop-color="#32A071"/>
<stop offset="0.0685" stop-color="#2DA771"/>
<stop offset="0.4762" stop-color="#15CF74"/>
<stop offset="0.8009" stop-color="#06E775"/>
<stop offset="1" stop-color="#00F076"/>
</linearGradient>
</defs>
</svg>
