<?xml version="1.0" encoding="UTF-8"?>
<svg width="200px" height="200px" viewBox="0 0 200 200" version="1.1" xmlns="http://www.w3.org/2000/svg" xmlns:xlink="http://www.w3.org/1999/xlink">
    <!-- Generator: Sketch 55.2 (78181) - https://sketchapp.com -->
    <title>dot-grid copy</title>
    <desc>Created with Sketch.</desc>
    <g id="Disha-Website" stroke="none" stroke-width="1" fill="none" fill-rule="evenodd">
        <g id="Artboard" transform="translate(-576.000000, -14.000000)" fill="#B6CD25" fill-rule="nonzero">
            <path d="M773.826087,214 C772.625468,214 771.652174,213.026705 771.652174,211.826087 C771.652174,210.625468 772.625468,209.652174 773.826087,209.652174 C775.026706,209.652174 776,210.625468 776,211.826087 C776,213.026705 775.026706,214 773.826087,214 Z M760.782609,214 C759.58199,214 758.608696,213.026705 758.608696,211.826087 C758.608696,210.625468 759.58199,209.652174 760.782609,209.652174 C761.983228,209.652174 762.956522,210.625468 762.956522,211.826087 C762.956522,213.026705 761.983228,214 760.782609,214 Z M747.73913,214 C746.538511,214 745.565217,213.026705 745.565217,211.826087 C745.565217,210.625468 746.538511,209.652174 747.73913,209.652174 C748.939749,209.652174 749.913043,210.625468 749.913043,211.826087 C749.913043,213.026705 748.939749,214 747.73913,214 Z M734.695652,214 C733.495033,214 732.521739,213.026705 732.521739,211.826087 C732.521739,210.625468 733.495033,209.652174 734.695652,209.652174 C735.896271,209.652174 736.869565,210.625468 736.869565,211.826087 C736.869565,213.026705 735.896271,214 734.695652,214 Z M721.652174,214 C720.451555,214 719.478261,213.026705 719.478261,211.826087 C719.478261,210.625468 720.451555,209.652174 721.652174,209.652174 C722.852793,209.652174 723.826087,210.625468 723.826087,211.826087 C723.826087,213.026705 722.852793,214 721.652174,214 Z M708.608696,214 C707.408077,214 706.434783,213.026705 706.434783,211.826087 C706.434783,210.625468 707.408077,209.652174 708.608696,209.652174 C709.809315,209.652174 710.782609,210.625468 710.782609,211.826087 C710.782609,213.026705 709.809315,214 708.608696,214 Z M695.565217,214 C694.364598,214 693.391304,213.026705 693.391304,211.826087 C693.391304,210.625468 694.364598,209.652174 695.565217,209.652174 C696.765836,209.652174 697.73913,210.625468 697.73913,211.826087 C697.73913,213.026705 696.765836,214 695.565217,214 Z M682.521739,214 C681.32112,214 680.347826,213.026705 680.347826,211.826087 C680.347826,210.625468 681.32112,209.652174 682.521739,209.652174 C683.722358,209.652174 684.695652,210.625468 684.695652,211.826087 C684.695652,213.026705 683.722358,214 682.521739,214 Z M773.826087,200.956522 C772.625468,200.956522 771.652174,199.983227 771.652174,198.782609 C771.652174,197.58199 772.625468,196.608696 773.826087,196.608696 C775.026706,196.608696 776,197.58199 776,198.782609 C776,199.983227 775.026706,200.956522 773.826087,200.956522 Z M760.782609,200.956522 C759.58199,200.956522 758.608696,199.983227 758.608696,198.782609 C758.608696,197.58199 759.58199,196.608696 760.782609,196.608696 C761.983228,196.608696 762.956522,197.58199 762.956522,198.782609 C762.956522,199.983227 761.983228,200.956522 760.782609,200.956522 Z M747.73913,200.956522 C746.538511,200.956522 745.565217,199.983227 745.565217,198.782609 C745.565217,197.58199 746.538511,196.608696 747.73913,196.608696 C748.939749,196.608696 749.913043,197.58199 749.913043,198.782609 C749.913043,199.983227 748.939749,200.956522 747.73913,200.956522 Z M734.695652,200.956522 C733.495033,200.956522 732.521739,199.983227 732.521739,198.782609 C732.521739,197.58199 733.495033,196.608696 734.695652,196.608696 C735.896271,196.608696 736.869565,197.58199 736.869565,198.782609 C736.869565,199.983227 735.896271,200.956522 734.695652,200.956522 Z M721.652174,200.956522 C720.451555,200.956522 719.478261,199.983227 719.478261,198.782609 C719.478261,197.58199 720.451555,196.608696 721.652174,196.608696 C722.852793,196.608696 723.826087,197.58199 723.826087,198.782609 C723.826087,199.983227 722.852793,200.956522 721.652174,200.956522 Z M708.608696,200.956522 C707.408077,200.956522 706.434783,199.983227 706.434783,198.782609 C706.434783,197.58199 707.408077,196.608696 708.608696,196.608696 C709.809315,196.608696 710.782609,197.58199 710.782609,198.782609 C710.782609,199.983227 709.809315,200.956522 708.608696,200.956522 Z M695.565217,200.956522 C694.364598,200.956522 693.391304,199.983227 693.391304,198.782609 C693.391304,197.58199 694.364598,196.608696 695.565217,196.608696 C696.765836,196.608696 697.73913,197.58199 697.73913,198.782609 C697.73913,199.983227 696.765836,200.956522 695.565217,200.956522 Z M682.521739,200.956522 C681.32112,200.956522 680.347826,199.983227 680.347826,198.782609 C680.347826,197.58199 681.32112,196.608696 682.521739,196.608696 C683.722358,196.608696 684.695652,197.58199 684.695652,198.782609 C684.695652,199.983227 683.722358,200.956522 682.521739,200.956522 Z M773.826087,187.913043 C772.625468,187.913043 771.652174,186.939749 771.652174,185.73913 C771.652174,184.538512 772.625468,183.565217 773.826087,183.565217 C775.026706,183.565217 776,184.538512 776,185.73913 C776,186.939749 775.026706,187.913043 773.826087,187.913043 Z M760.782609,187.913043 C759.58199,187.913043 758.608696,186.939749 758.608696,185.73913 C758.608696,184.538512 759.58199,183.565217 760.782609,183.565217 C761.983228,183.565217 762.956522,184.538512 762.956522,185.73913 C762.956522,186.939749 761.983228,187.913043 760.782609,187.913043 Z M747.73913,187.913043 C746.538511,187.913043 745.565217,186.939749 745.565217,185.73913 C745.565217,184.538512 746.538511,183.565217 747.73913,183.565217 C748.939749,183.565217 749.913043,184.538512 749.913043,185.73913 C749.913043,186.939749 748.939749,187.913043 747.73913,187.913043 Z M734.695652,187.913043 C733.495033,187.913043 732.521739,186.939749 732.521739,185.73913 C732.521739,184.538512 733.495033,183.565217 734.695652,183.565217 C735.896271,183.565217 736.869565,184.538512 736.869565,185.73913 C736.869565,186.939749 735.896271,187.913043 734.695652,187.913043 Z M721.652174,187.913043 C720.451555,187.913043 719.478261,186.939749 719.478261,185.73913 C719.478261,184.538512 720.451555,183.565217 721.652174,183.565217 C722.852793,183.565217 723.826087,184.538512 723.826087,185.73913 C723.826087,186.939749 722.852793,187.913043 721.652174,187.913043 Z M708.608696,187.913043 C707.408077,187.913043 706.434783,186.939749 706.434783,185.73913 C706.434783,184.538512 707.408077,183.565217 708.608696,183.565217 C709.809315,183.565217 710.782609,184.538512 710.782609,185.73913 C710.782609,186.939749 709.809315,187.913043 708.608696,187.913043 Z M695.565217,187.913043 C694.364598,187.913043 693.391304,186.939749 693.391304,185.73913 C693.391304,184.538512 694.364598,183.565217 695.565217,183.565217 C696.765836,183.565217 697.73913,184.538512 697.73913,185.73913 C697.73913,186.939749 696.765836,187.913043 695.565217,187.913043 Z M682.521739,187.913043 C681.32112,187.913043 680.347826,186.939749 680.347826,185.73913 C680.347826,184.538512 681.32112,183.565217 682.521739,183.565217 C683.722358,183.565217 684.695652,184.538512 684.695652,185.73913 C684.695652,186.939749 683.722358,187.913043 682.521739,187.913043 Z M773.826087,174.869565 C772.625468,174.869565 771.652174,173.896271 771.652174,172.695652 C771.652174,171.495034 772.625468,170.521739 773.826087,170.521739 C775.026706,170.521739 776,171.495034 776,172.695652 C776,173.896271 775.026706,174.869565 773.826087,174.869565 Z M760.782609,174.869565 C759.58199,174.869565 758.608696,173.896271 758.608696,172.695652 C758.608696,171.495034 759.58199,170.521739 760.782609,170.521739 C761.983228,170.521739 762.956522,171.495034 762.956522,172.695652 C762.956522,173.896271 761.983228,174.869565 760.782609,174.869565 Z M747.73913,174.869565 C746.538511,174.869565 745.565217,173.896271 745.565217,172.695652 C745.565217,171.495034 746.538511,170.521739 747.73913,170.521739 C748.939749,170.521739 749.913043,171.495034 749.913043,172.695652 C749.913043,173.896271 748.939749,174.869565 747.73913,174.869565 Z M734.695652,174.869565 C733.495033,174.869565 732.521739,173.896271 732.521739,172.695652 C732.521739,171.495034 733.495033,170.521739 734.695652,170.521739 C735.896271,170.521739 736.869565,171.495034 736.869565,172.695652 C736.869565,173.896271 735.896271,174.869565 734.695652,174.869565 Z M721.652174,174.869565 C720.451555,174.869565 719.478261,173.896271 719.478261,172.695652 C719.478261,171.495034 720.451555,170.521739 721.652174,170.521739 C722.852793,170.521739 723.826087,171.495034 723.826087,172.695652 C723.826087,173.896271 722.852793,174.869565 721.652174,174.869565 Z M708.608696,174.869565 C707.408077,174.869565 706.434783,173.896271 706.434783,172.695652 C706.434783,171.495034 707.408077,170.521739 708.608696,170.521739 C709.809315,170.521739 710.782609,171.495034 710.782609,172.695652 C710.782609,173.896271 709.809315,174.869565 708.608696,174.869565 Z M695.565217,174.869565 C694.364598,174.869565 693.391304,173.896271 693.391304,172.695652 C693.391304,171.495034 694.364598,170.521739 695.565217,170.521739 C696.765836,170.521739 697.73913,171.495034 697.73913,172.695652 C697.73913,173.896271 696.765836,174.869565 695.565217,174.869565 Z M682.521739,174.869565 C681.32112,174.869565 680.347826,173.896271 680.347826,172.695652 C680.347826,171.495034 681.32112,170.521739 682.521739,170.521739 C683.722358,170.521739 684.695652,171.495034 684.695652,172.695652 C684.695652,173.896271 683.722358,174.869565 682.521739,174.869565 Z M773.826087,161.826087 C772.625468,161.826087 771.652174,160.852792 771.652174,159.652174 C771.652174,158.451555 772.625468,157.478261 773.826087,157.478261 C775.026706,157.478261 776,158.451555 776,159.652174 C776,160.852792 775.026706,161.826087 773.826087,161.826087 Z M760.782609,161.826087 C759.58199,161.826087 758.608696,160.852792 758.608696,159.652174 C758.608696,158.451555 759.58199,157.478261 760.782609,157.478261 C761.983228,157.478261 762.956522,158.451555 762.956522,159.652174 C762.956522,160.852792 761.983228,161.826087 760.782609,161.826087 Z M747.73913,161.826087 C746.538511,161.826087 745.565217,160.852792 745.565217,159.652174 C745.565217,158.451555 746.538511,157.478261 747.73913,157.478261 C748.939749,157.478261 749.913043,158.451555 749.913043,159.652174 C749.913043,160.852792 748.939749,161.826087 747.73913,161.826087 Z M734.695652,161.826087 C733.495033,161.826087 732.521739,160.852792 732.521739,159.652174 C732.521739,158.451555 733.495033,157.478261 734.695652,157.478261 C735.896271,157.478261 736.869565,158.451555 736.869565,159.652174 C736.869565,160.852792 735.896271,161.826087 734.695652,161.826087 Z M721.652174,161.826087 C720.451555,161.826087 719.478261,160.852792 719.478261,159.652174 C719.478261,158.451555 720.451555,157.478261 721.652174,157.478261 C722.852793,157.478261 723.826087,158.451555 723.826087,159.652174 C723.826087,160.852792 722.852793,161.826087 721.652174,161.826087 Z M708.608696,161.826087 C707.408077,161.826087 706.434783,160.852792 706.434783,159.652174 C706.434783,158.451555 707.408077,157.478261 708.608696,157.478261 C709.809315,157.478261 710.782609,158.451555 710.782609,159.652174 C710.782609,160.852792 709.809315,161.826087 708.608696,161.826087 Z M695.565217,161.826087 C694.364598,161.826087 693.391304,160.852792 693.391304,159.652174 C693.391304,158.451555 694.364598,157.478261 695.565217,157.478261 C696.765836,157.478261 697.73913,158.451555 697.73913,159.652174 C697.73913,160.852792 696.765836,161.826087 695.565217,161.826087 Z M682.521739,161.826087 C681.32112,161.826087 680.347826,160.852792 680.347826,159.652174 C680.347826,158.451555 681.32112,157.478261 682.521739,157.478261 C683.722358,157.478261 684.695652,158.451555 684.695652,159.652174 C684.695652,160.852792 683.722358,161.826087 682.521739,161.826087 Z M773.826087,148.782609 C772.625468,148.782609 771.652174,147.809314 771.652174,146.608696 C771.652174,145.408077 772.625468,144.434783 773.826087,144.434783 C775.026706,144.434783 776,145.408077 776,146.608696 C776,147.809314 775.026706,148.782609 773.826087,148.782609 Z M760.782609,148.782609 C759.58199,148.782609 758.608696,147.809314 758.608696,146.608696 C758.608696,145.408077 759.58199,144.434783 760.782609,144.434783 C761.983228,144.434783 762.956522,145.408077 762.956522,146.608696 C762.956522,147.809314 761.983228,148.782609 760.782609,148.782609 Z M747.73913,148.782609 C746.538511,148.782609 745.565217,147.809314 745.565217,146.608696 C745.565217,145.408077 746.538511,144.434783 747.73913,144.434783 C748.939749,144.434783 749.913043,145.408077 749.913043,146.608696 C749.913043,147.809314 748.939749,148.782609 747.73913,148.782609 Z M734.695652,148.782609 C733.495033,148.782609 732.521739,147.809314 732.521739,146.608696 C732.521739,145.408077 733.495033,144.434783 734.695652,144.434783 C735.896271,144.434783 736.869565,145.408077 736.869565,146.608696 C736.869565,147.809314 735.896271,148.782609 734.695652,148.782609 Z M721.652174,148.782609 C720.451555,148.782609 719.478261,147.809314 719.478261,146.608696 C719.478261,145.408077 720.451555,144.434783 721.652174,144.434783 C722.852793,144.434783 723.826087,145.408077 723.826087,146.608696 C723.826087,147.809314 722.852793,148.782609 721.652174,148.782609 Z M708.608696,148.782609 C707.408077,148.782609 706.434783,147.809314 706.434783,146.608696 C706.434783,145.408077 707.408077,144.434783 708.608696,144.434783 C709.809315,144.434783 710.782609,145.408077 710.782609,146.608696 C710.782609,147.809314 709.809315,148.782609 708.608696,148.782609 Z M695.565217,148.782609 C694.364598,148.782609 693.391304,147.809314 693.391304,146.608696 C693.391304,145.408077 694.364598,144.434783 695.565217,144.434783 C696.765836,144.434783 697.73913,145.408077 697.73913,146.608696 C697.73913,147.809314 696.765836,148.782609 695.565217,148.782609 Z M682.521739,148.782609 C681.32112,148.782609 680.347826,147.809314 680.347826,146.608696 C680.347826,145.408077 681.32112,144.434783 682.521739,144.434783 C683.722358,144.434783 684.695652,145.408077 684.695652,146.608696 C684.695652,147.809314 683.722358,148.782609 682.521739,148.782609 Z M773.826087,135.73913 C772.625468,135.73913 771.652174,134.765836 771.652174,133.565217 C771.652174,132.364599 772.625468,131.391304 773.826087,131.391304 C775.026706,131.391304 776,132.364599 776,133.565217 C776,134.765836 775.026706,135.73913 773.826087,135.73913 Z M760.782609,135.73913 C759.58199,135.73913 758.608696,134.765836 758.608696,133.565217 C758.608696,132.364599 759.58199,131.391304 760.782609,131.391304 C761.983228,131.391304 762.956522,132.364599 762.956522,133.565217 C762.956522,134.765836 761.983228,135.73913 760.782609,135.73913 Z M747.73913,135.73913 C746.538511,135.73913 745.565217,134.765836 745.565217,133.565217 C745.565217,132.364599 746.538511,131.391304 747.73913,131.391304 C748.939749,131.391304 749.913043,132.364599 749.913043,133.565217 C749.913043,134.765836 748.939749,135.73913 747.73913,135.73913 Z M734.695652,135.73913 C733.495033,135.73913 732.521739,134.765836 732.521739,133.565217 C732.521739,132.364599 733.495033,131.391304 734.695652,131.391304 C735.896271,131.391304 736.869565,132.364599 736.869565,133.565217 C736.869565,134.765836 735.896271,135.73913 734.695652,135.73913 Z M721.652174,135.73913 C720.451555,135.73913 719.478261,134.765836 719.478261,133.565217 C719.478261,132.364599 720.451555,131.391304 721.652174,131.391304 C722.852793,131.391304 723.826087,132.364599 723.826087,133.565217 C723.826087,134.765836 722.852793,135.73913 721.652174,135.73913 Z M708.608696,135.73913 C707.408077,135.73913 706.434783,134.765836 706.434783,133.565217 C706.434783,132.364599 707.408077,131.391304 708.608696,131.391304 C709.809315,131.391304 710.782609,132.364599 710.782609,133.565217 C710.782609,134.765836 709.809315,135.73913 708.608696,135.73913 Z M695.565217,135.73913 C694.364598,135.73913 693.391304,134.765836 693.391304,133.565217 C693.391304,132.364599 694.364598,131.391304 695.565217,131.391304 C696.765836,131.391304 697.73913,132.364599 697.73913,133.565217 C697.73913,134.765836 696.765836,135.73913 695.565217,135.73913 Z M682.521739,135.73913 C681.32112,135.73913 680.347826,134.765836 680.347826,133.565217 C680.347826,132.364599 681.32112,131.391304 682.521739,131.391304 C683.722358,131.391304 684.695652,132.364599 684.695652,133.565217 C684.695652,134.765836 683.722358,135.73913 682.521739,135.73913 Z M773.826087,122.695652 C772.625468,122.695652 771.652174,121.722358 771.652174,120.521739 C771.652174,119.32112 772.625468,118.347826 773.826087,118.347826 C775.026706,118.347826 776,119.32112 776,120.521739 C776,121.722358 775.026706,122.695652 773.826087,122.695652 Z M760.782609,122.695652 C759.58199,122.695652 758.608696,121.722358 758.608696,120.521739 C758.608696,119.32112 759.58199,118.347826 760.782609,118.347826 C761.983228,118.347826 762.956522,119.32112 762.956522,120.521739 C762.956522,121.722358 761.983228,122.695652 760.782609,122.695652 Z M747.73913,122.695652 C746.538511,122.695652 745.565217,121.722358 745.565217,120.521739 C745.565217,119.32112 746.538511,118.347826 747.73913,118.347826 C748.939749,118.347826 749.913043,119.32112 749.913043,120.521739 C749.913043,121.722358 748.939749,122.695652 747.73913,122.695652 Z M734.695652,122.695652 C733.495033,122.695652 732.521739,121.722358 732.521739,120.521739 C732.521739,119.32112 733.495033,118.347826 734.695652,118.347826 C735.896271,118.347826 736.869565,119.32112 736.869565,120.521739 C736.869565,121.722358 735.896271,122.695652 734.695652,122.695652 Z M721.652174,122.695652 C720.451555,122.695652 719.478261,121.722358 719.478261,120.521739 C719.478261,119.32112 720.451555,118.347826 721.652174,118.347826 C722.852793,118.347826 723.826087,119.32112 723.826087,120.521739 C723.826087,121.722358 722.852793,122.695652 721.652174,122.695652 Z M708.608696,122.695652 C707.408077,122.695652 706.434783,121.722358 706.434783,120.521739 C706.434783,119.32112 707.408077,118.347826 708.608696,118.347826 C709.809315,118.347826 710.782609,119.32112 710.782609,120.521739 C710.782609,121.722358 709.809315,122.695652 708.608696,122.695652 Z M695.565217,122.695652 C694.364598,122.695652 693.391304,121.722358 693.391304,120.521739 C693.391304,119.32112 694.364598,118.347826 695.565217,118.347826 C696.765836,118.347826 697.73913,119.32112 697.73913,120.521739 C697.73913,121.722358 696.765836,122.695652 695.565217,122.695652 Z M682.521739,122.695652 C681.32112,122.695652 680.347826,121.722358 680.347826,120.521739 C680.347826,119.32112 681.32112,118.347826 682.521739,118.347826 C683.722358,118.347826 684.695652,119.32112 684.695652,120.521739 C684.695652,121.722358 683.722358,122.695652 682.521739,122.695652 Z M773.826087,109.652174 C772.625468,109.652174 771.652174,108.67888 771.652174,107.478261 C771.652174,106.277642 772.625468,105.304348 773.826087,105.304348 C775.026706,105.304348 776,106.277642 776,107.478261 C776,108.67888 775.026706,109.652174 773.826087,109.652174 Z M760.782609,109.652174 C759.58199,109.652174 758.608696,108.67888 758.608696,107.478261 C758.608696,106.277642 759.58199,105.304348 760.782609,105.304348 C761.983228,105.304348 762.956522,106.277642 762.956522,107.478261 C762.956522,108.67888 761.983228,109.652174 760.782609,109.652174 Z M747.73913,109.652174 C746.538511,109.652174 745.565217,108.67888 745.565217,107.478261 C745.565217,106.277642 746.538511,105.304348 747.73913,105.304348 C748.939749,105.304348 749.913043,106.277642 749.913043,107.478261 C749.913043,108.67888 748.939749,109.652174 747.73913,109.652174 Z M734.695652,109.652174 C733.495033,109.652174 732.521739,108.67888 732.521739,107.478261 C732.521739,106.277642 733.495033,105.304348 734.695652,105.304348 C735.896271,105.304348 736.869565,106.277642 736.869565,107.478261 C736.869565,108.67888 735.896271,109.652174 734.695652,109.652174 Z M721.652174,109.652174 C720.451555,109.652174 719.478261,108.67888 719.478261,107.478261 C719.478261,106.277642 720.451555,105.304348 721.652174,105.304348 C722.852793,105.304348 723.826087,106.277642 723.826087,107.478261 C723.826087,108.67888 722.852793,109.652174 721.652174,109.652174 Z M708.608696,109.652174 C707.408077,109.652174 706.434783,108.67888 706.434783,107.478261 C706.434783,106.277642 707.408077,105.304348 708.608696,105.304348 C709.809315,105.304348 710.782609,106.277642 710.782609,107.478261 C710.782609,108.67888 709.809315,109.652174 708.608696,109.652174 Z M695.565217,109.652174 C694.364598,109.652174 693.391304,108.67888 693.391304,107.478261 C693.391304,106.277642 694.364598,105.304348 695.565217,105.304348 C696.765836,105.304348 697.73913,106.277642 697.73913,107.478261 C697.73913,108.67888 696.765836,109.652174 695.565217,109.652174 Z M682.521739,109.652174 C681.32112,109.652174 680.347826,108.67888 680.347826,107.478261 C680.347826,106.277642 681.32112,105.304348 682.521739,105.304348 C683.722358,105.304348 684.695652,106.277642 684.695652,107.478261 C684.695652,108.67888 683.722358,109.652174 682.521739,109.652174 Z M773.826087,96.6086957 C772.625468,96.6086957 771.652174,95.6354016 771.652174,94.4347826 C771.652174,93.2341636 772.625468,92.2608696 773.826087,92.2608696 C775.026706,92.2608696 776,93.2341636 776,94.4347826 C776,95.6354016 775.026706,96.6086957 773.826087,96.6086957 Z M760.782609,96.6086957 C759.58199,96.6086957 758.608696,95.6354016 758.608696,94.4347826 C758.608696,93.2341636 759.58199,92.2608696 760.782609,92.2608696 C761.983228,92.2608696 762.956522,93.2341636 762.956522,94.4347826 C762.956522,95.6354016 761.983228,96.6086957 760.782609,96.6086957 Z M747.73913,96.6086957 C746.538511,96.6086957 745.565217,95.6354016 745.565217,94.4347826 C745.565217,93.2341636 746.538511,92.2608696 747.73913,92.2608696 C748.939749,92.2608696 749.913043,93.2341636 749.913043,94.4347826 C749.913043,95.6354016 748.939749,96.6086957 747.73913,96.6086957 Z M734.695652,96.6086957 C733.495033,96.6086957 732.521739,95.6354016 732.521739,94.4347826 C732.521739,93.2341636 733.495033,92.2608696 734.695652,92.2608696 C735.896271,92.2608696 736.869565,93.2341636 736.869565,94.4347826 C736.869565,95.6354016 735.896271,96.6086957 734.695652,96.6086957 Z M721.652174,96.6086957 C720.451555,96.6086957 719.478261,95.6354016 719.478261,94.4347826 C719.478261,93.2341636 720.451555,92.2608696 721.652174,92.2608696 C722.852793,92.2608696 723.826087,93.2341636 723.826087,94.4347826 C723.826087,95.6354016 722.852793,96.6086957 721.652174,96.6086957 Z M708.608696,96.6086957 C707.408077,96.6086957 706.434783,95.6354016 706.434783,94.4347826 C706.434783,93.2341636 707.408077,92.2608696 708.608696,92.2608696 C709.809315,92.2608696 710.782609,93.2341636 710.782609,94.4347826 C710.782609,95.6354016 709.809315,96.6086957 708.608696,96.6086957 Z M695.565217,96.6086957 C694.364598,96.6086957 693.391304,95.6354016 693.391304,94.4347826 C693.391304,93.2341636 694.364598,92.2608696 695.565217,92.2608696 C696.765836,92.2608696 697.73913,93.2341636 697.73913,94.4347826 C697.73913,95.6354016 696.765836,96.6086957 695.565217,96.6086957 Z M682.521739,96.6086957 C681.32112,96.6086957 680.347826,95.6354016 680.347826,94.4347826 C680.347826,93.2341636 681.32112,92.2608696 682.521739,92.2608696 C683.722358,92.2608696 684.695652,93.2341636 684.695652,94.4347826 C684.695652,95.6354016 683.722358,96.6086957 682.521739,96.6086957 Z M773.826087,83.5652174 C772.625468,83.5652174 771.652174,82.5919234 771.652174,81.3913043 C771.652174,80.1906853 772.625468,79.2173913 773.826087,79.2173913 C775.026706,79.2173913 776,80.1906853 776,81.3913043 C776,82.5919234 775.026706,83.5652174 773.826087,83.5652174 Z M760.782609,83.5652174 C759.58199,83.5652174 758.608696,82.5919234 758.608696,81.3913043 C758.608696,80.1906853 759.58199,79.2173913 760.782609,79.2173913 C761.983228,79.2173913 762.956522,80.1906853 762.956522,81.3913043 C762.956522,82.5919234 761.983228,83.5652174 760.782609,83.5652174 Z M747.73913,83.5652174 C746.538511,83.5652174 745.565217,82.5919234 745.565217,81.3913043 C745.565217,80.1906853 746.538511,79.2173913 747.73913,79.2173913 C748.939749,79.2173913 749.913043,80.1906853 749.913043,81.3913043 C749.913043,82.5919234 748.939749,83.5652174 747.73913,83.5652174 Z M734.695652,83.5652174 C733.495033,83.5652174 732.521739,82.5919234 732.521739,81.3913043 C732.521739,80.1906853 733.495033,79.2173913 734.695652,79.2173913 C735.896271,79.2173913 736.869565,80.1906853 736.869565,81.3913043 C736.869565,82.5919234 735.896271,83.5652174 734.695652,83.5652174 Z M721.652174,83.5652174 C720.451555,83.5652174 719.478261,82.5919234 719.478261,81.3913043 C719.478261,80.1906853 720.451555,79.2173913 721.652174,79.2173913 C722.852793,79.2173913 723.826087,80.1906853 723.826087,81.3913043 C723.826087,82.5919234 722.852793,83.5652174 721.652174,83.5652174 Z M708.608696,83.5652174 C707.408077,83.5652174 706.434783,82.5919234 706.434783,81.3913043 C706.434783,80.1906853 707.408077,79.2173913 708.608696,79.2173913 C709.809315,79.2173913 710.782609,80.1906853 710.782609,81.3913043 C710.782609,82.5919234 709.809315,83.5652174 708.608696,83.5652174 Z M695.565217,83.5652174 C694.364598,83.5652174 693.391304,82.5919234 693.391304,81.3913043 C693.391304,80.1906853 694.364598,79.2173913 695.565217,79.2173913 C696.765836,79.2173913 697.73913,80.1906853 697.73913,81.3913043 C697.73913,82.5919234 696.765836,83.5652174 695.565217,83.5652174 Z M682.521739,83.5652174 C681.32112,83.5652174 680.347826,82.5919234 680.347826,81.3913043 C680.347826,80.1906853 681.32112,79.2173913 682.521739,79.2173913 C683.722358,79.2173913 684.695652,80.1906853 684.695652,81.3913043 C684.695652,82.5919234 683.722358,83.5652174 682.521739,83.5652174 Z M773.826087,70.5217391 C772.625468,70.5217391 771.652174,69.5484451 771.652174,68.3478261 C771.652174,67.1472071 772.625468,66.173913 773.826087,66.173913 C775.026706,66.173913 776,67.1472071 776,68.3478261 C776,69.5484451 775.026706,70.5217391 773.826087,70.5217391 Z M760.782609,70.5217391 C759.58199,70.5217391 758.608696,69.5484451 758.608696,68.3478261 C758.608696,67.1472071 759.58199,66.173913 760.782609,66.173913 C761.983228,66.173913 762.956522,67.1472071 762.956522,68.3478261 C762.956522,69.5484451 761.983228,70.5217391 760.782609,70.5217391 Z M747.73913,70.5217391 C746.538511,70.5217391 745.565217,69.5484451 745.565217,68.3478261 C745.565217,67.1472071 746.538511,66.173913 747.73913,66.173913 C748.939749,66.173913 749.913043,67.1472071 749.913043,68.3478261 C749.913043,69.5484451 748.939749,70.5217391 747.73913,70.5217391 Z M734.695652,70.5217391 C733.495033,70.5217391 732.521739,69.5484451 732.521739,68.3478261 C732.521739,67.1472071 733.495033,66.173913 734.695652,66.173913 C735.896271,66.173913 736.869565,67.1472071 736.869565,68.3478261 C736.869565,69.5484451 735.896271,70.5217391 734.695652,70.5217391 Z M721.652174,70.5217391 C720.451555,70.5217391 719.478261,69.5484451 719.478261,68.3478261 C719.478261,67.1472071 720.451555,66.173913 721.652174,66.173913 C722.852793,66.173913 723.826087,67.1472071 723.826087,68.3478261 C723.826087,69.5484451 722.852793,70.5217391 721.652174,70.5217391 Z M708.608696,70.5217391 C707.408077,70.5217391 706.434783,69.5484451 706.434783,68.3478261 C706.434783,67.1472071 707.408077,66.173913 708.608696,66.173913 C709.809315,66.173913 710.782609,67.1472071 710.782609,68.3478261 C710.782609,69.5484451 709.809315,70.5217391 708.608696,70.5217391 Z M695.565217,70.5217391 C694.364598,70.5217391 693.391304,69.5484451 693.391304,68.3478261 C693.391304,67.1472071 694.364598,66.173913 695.565217,66.173913 C696.765836,66.173913 697.73913,67.1472071 697.73913,68.3478261 C697.73913,69.5484451 696.765836,70.5217391 695.565217,70.5217391 Z M682.521739,70.5217391 C681.32112,70.5217391 680.347826,69.5484451 680.347826,68.3478261 C680.347826,67.1472071 681.32112,66.173913 682.521739,66.173913 C683.722358,66.173913 684.695652,67.1472071 684.695652,68.3478261 C684.695652,69.5484451 683.722358,70.5217391 682.521739,70.5217391 Z M773.826087,57.4782609 C772.625468,57.4782609 771.652174,56.5049668 771.652174,55.3043478 C771.652174,54.1037288 772.625468,53.1304348 773.826087,53.1304348 C775.026706,53.1304348 776,54.1037288 776,55.3043478 C776,56.5049668 775.026706,57.4782609 773.826087,57.4782609 Z M760.782609,57.4782609 C759.58199,57.4782609 758.608696,56.5049668 758.608696,55.3043478 C758.608696,54.1037288 759.58199,53.1304348 760.782609,53.1304348 C761.983228,53.1304348 762.956522,54.1037288 762.956522,55.3043478 C762.956522,56.5049668 761.983228,57.4782609 760.782609,57.4782609 Z M747.73913,57.4782609 C746.538511,57.4782609 745.565217,56.5049668 745.565217,55.3043478 C745.565217,54.1037288 746.538511,53.1304348 747.73913,53.1304348 C748.939749,53.1304348 749.913043,54.1037288 749.913043,55.3043478 C749.913043,56.5049668 748.939749,57.4782609 747.73913,57.4782609 Z M734.695652,57.4782609 C733.495033,57.4782609 732.521739,56.5049668 732.521739,55.3043478 C732.521739,54.1037288 733.495033,53.1304348 734.695652,53.1304348 C735.896271,53.1304348 736.869565,54.1037288 736.869565,55.3043478 C736.869565,56.5049668 735.896271,57.4782609 734.695652,57.4782609 Z M721.652174,57.4782609 C720.451555,57.4782609 719.478261,56.5049668 719.478261,55.3043478 C719.478261,54.1037288 720.451555,53.1304348 721.652174,53.1304348 C722.852793,53.1304348 723.826087,54.1037288 723.826087,55.3043478 C723.826087,56.5049668 722.852793,57.4782609 721.652174,57.4782609 Z M708.608696,57.4782609 C707.408077,57.4782609 706.434783,56.5049668 706.434783,55.3043478 C706.434783,54.1037288 707.408077,53.1304348 708.608696,53.1304348 C709.809315,53.1304348 710.782609,54.1037288 710.782609,55.3043478 C710.782609,56.5049668 709.809315,57.4782609 708.608696,57.4782609 Z M695.565217,57.4782609 C694.364598,57.4782609 693.391304,56.5049668 693.391304,55.3043478 C693.391304,54.1037288 694.364598,53.1304348 695.565217,53.1304348 C696.765836,53.1304348 697.73913,54.1037288 697.73913,55.3043478 C697.73913,56.5049668 696.765836,57.4782609 695.565217,57.4782609 Z M682.521739,57.4782609 C681.32112,57.4782609 680.347826,56.5049668 680.347826,55.3043478 C680.347826,54.1037288 681.32112,53.1304348 682.521739,53.1304348 C683.722358,53.1304348 684.695652,54.1037288 684.695652,55.3043478 C684.695652,56.5049668 683.722358,57.4782609 682.521739,57.4782609 Z M773.826087,44.4347826 C772.625468,44.4347826 771.652174,43.4614886 771.652174,42.2608696 C771.652174,41.0602505 772.625468,40.0869565 773.826087,40.0869565 C775.026706,40.0869565 776,41.0602505 776,42.2608696 C776,43.4614886 775.026706,44.4347826 773.826087,44.4347826 Z M760.782609,44.4347826 C759.58199,44.4347826 758.608696,43.4614886 758.608696,42.2608696 C758.608696,41.0602505 759.58199,40.0869565 760.782609,40.0869565 C761.983228,40.0869565 762.956522,41.0602505 762.956522,42.2608696 C762.956522,43.4614886 761.983228,44.4347826 760.782609,44.4347826 Z M747.73913,44.4347826 C746.538511,44.4347826 745.565217,43.4614886 745.565217,42.2608696 C745.565217,41.0602505 746.538511,40.0869565 747.73913,40.0869565 C748.939749,40.0869565 749.913043,41.0602505 749.913043,42.2608696 C749.913043,43.4614886 748.939749,44.4347826 747.73913,44.4347826 Z M734.695652,44.4347826 C733.495033,44.4347826 732.521739,43.4614886 732.521739,42.2608696 C732.521739,41.0602505 733.495033,40.0869565 734.695652,40.0869565 C735.896271,40.0869565 736.869565,41.0602505 736.869565,42.2608696 C736.869565,43.4614886 735.896271,44.4347826 734.695652,44.4347826 Z M721.652174,44.4347826 C720.451555,44.4347826 719.478261,43.4614886 719.478261,42.2608696 C719.478261,41.0602505 720.451555,40.0869565 721.652174,40.0869565 C722.852793,40.0869565 723.826087,41.0602505 723.826087,42.2608696 C723.826087,43.4614886 722.852793,44.4347826 721.652174,44.4347826 Z M708.608696,44.4347826 C707.408077,44.4347826 706.434783,43.4614886 706.434783,42.2608696 C706.434783,41.0602505 707.408077,40.0869565 708.608696,40.0869565 C709.809315,40.0869565 710.782609,41.0602505 710.782609,42.2608696 C710.782609,43.4614886 709.809315,44.4347826 708.608696,44.4347826 Z M695.565217,44.4347826 C694.364598,44.4347826 693.391304,43.4614886 693.391304,42.2608696 C693.391304,41.0602505 694.364598,40.0869565 695.565217,40.0869565 C696.765836,40.0869565 697.73913,41.0602505 697.73913,42.2608696 C697.73913,43.4614886 696.765836,44.4347826 695.565217,44.4347826 Z M682.521739,44.4347826 C681.32112,44.4347826 680.347826,43.4614886 680.347826,42.2608696 C680.347826,41.0602505 681.32112,40.0869565 682.521739,40.0869565 C683.722358,40.0869565 684.695652,41.0602505 684.695652,42.2608696 C684.695652,43.4614886 683.722358,44.4347826 682.521739,44.4347826 Z M773.826087,31.3913043 C772.625468,31.3913043 771.652174,30.4180103 771.652174,29.2173913 C771.652174,28.0167723 772.625468,27.0434783 773.826087,27.0434783 C775.026706,27.0434783 776,28.0167723 776,29.2173913 C776,30.4180103 775.026706,31.3913043 773.826087,31.3913043 Z M760.782609,31.3913043 C759.58199,31.3913043 758.608696,30.4180103 758.608696,29.2173913 C758.608696,28.0167723 759.58199,27.0434783 760.782609,27.0434783 C761.983228,27.0434783 762.956522,28.0167723 762.956522,29.2173913 C762.956522,30.4180103 761.983228,31.3913043 760.782609,31.3913043 Z M747.73913,31.3913043 C746.538511,31.3913043 745.565217,30.4180103 745.565217,29.2173913 C745.565217,28.0167723 746.538511,27.0434783 747.73913,27.0434783 C748.939749,27.0434783 749.913043,28.0167723 749.913043,29.2173913 C749.913043,30.4180103 748.939749,31.3913043 747.73913,31.3913043 Z M734.695652,31.3913043 C733.495033,31.3913043 732.521739,30.4180103 732.521739,29.2173913 C732.521739,28.0167723 733.495033,27.0434783 734.695652,27.0434783 C735.896271,27.0434783 736.869565,28.0167723 736.869565,29.2173913 C736.869565,30.4180103 735.896271,31.3913043 734.695652,31.3913043 Z M721.652174,31.3913043 C720.451555,31.3913043 719.478261,30.4180103 719.478261,29.2173913 C719.478261,28.0167723 720.451555,27.0434783 721.652174,27.0434783 C722.852793,27.0434783 723.826087,28.0167723 723.826087,29.2173913 C723.826087,30.4180103 722.852793,31.3913043 721.652174,31.3913043 Z M708.608696,31.3913043 C707.408077,31.3913043 706.434783,30.4180103 706.434783,29.2173913 C706.434783,28.0167723 707.408077,27.0434783 708.608696,27.0434783 C709.809315,27.0434783 710.782609,28.0167723 710.782609,29.2173913 C710.782609,30.4180103 709.809315,31.3913043 708.608696,31.3913043 Z M695.565217,31.3913043 C694.364598,31.3913043 693.391304,30.4180103 693.391304,29.2173913 C693.391304,28.0167723 694.364598,27.0434783 695.565217,27.0434783 C696.765836,27.0434783 697.73913,28.0167723 697.73913,29.2173913 C697.73913,30.4180103 696.765836,31.3913043 695.565217,31.3913043 Z M682.521739,31.3913043 C681.32112,31.3913043 680.347826,30.4180103 680.347826,29.2173913 C680.347826,28.0167723 681.32112,27.0434783 682.521739,27.0434783 C683.722358,27.0434783 684.695652,28.0167723 684.695652,29.2173913 C684.695652,30.4180103 683.722358,31.3913043 682.521739,31.3913043 Z M773.826087,18.3478261 C772.625468,18.3478261 771.652174,17.3745321 771.652174,16.173913 C771.652174,14.973294 772.625468,14 773.826087,14 C775.026706,14 776,14.973294 776,16.173913 C776,17.3745321 775.026706,18.3478261 773.826087,18.3478261 Z M760.782609,18.3478261 C759.58199,18.3478261 758.608696,17.3745321 758.608696,16.173913 C758.608696,14.973294 759.58199,14 760.782609,14 C761.983228,14 762.956522,14.973294 762.956522,16.173913 C762.956522,17.3745321 761.983228,18.3478261 760.782609,18.3478261 Z M747.73913,18.3478261 C746.538511,18.3478261 745.565217,17.3745321 745.565217,16.173913 C745.565217,14.973294 746.538511,14 747.73913,14 C748.939749,14 749.913043,14.973294 749.913043,16.173913 C749.913043,17.3745321 748.939749,18.3478261 747.73913,18.3478261 Z M734.695652,18.3478261 C733.495033,18.3478261 732.521739,17.3745321 732.521739,16.173913 C732.521739,14.973294 733.495033,14 734.695652,14 C735.896271,14 736.869565,14.973294 736.869565,16.173913 C736.869565,17.3745321 735.896271,18.3478261 734.695652,18.3478261 Z M721.652174,18.3478261 C720.451555,18.3478261 719.478261,17.3745321 719.478261,16.173913 C719.478261,14.973294 720.451555,14 721.652174,14 C722.852793,14 723.826087,14.973294 723.826087,16.173913 C723.826087,17.3745321 722.852793,18.3478261 721.652174,18.3478261 Z M708.608696,18.3478261 C707.408077,18.3478261 706.434783,17.3745321 706.434783,16.173913 C706.434783,14.973294 707.408077,14 708.608696,14 C709.809315,14 710.782609,14.973294 710.782609,16.173913 C710.782609,17.3745321 709.809315,18.3478261 708.608696,18.3478261 Z M695.565217,18.3478261 C694.364598,18.3478261 693.391304,17.3745321 693.391304,16.173913 C693.391304,14.973294 694.364598,14 695.565217,14 C696.765836,14 697.73913,14.973294 697.73913,16.173913 C697.73913,17.3745321 696.765836,18.3478261 695.565217,18.3478261 Z M682.521739,18.3478261 C681.32112,18.3478261 680.347826,17.3745321 680.347826,16.173913 C680.347826,14.973294 681.32112,14 682.521739,14 C683.722358,14 684.695652,14.973294 684.695652,16.173913 C684.695652,17.3745321 683.722358,18.3478261 682.521739,18.3478261 Z M669.478261,214 C668.277642,214 667.304348,213.026705 667.304348,211.826087 C667.304348,210.625468 668.277642,209.652174 669.478261,209.652174 C670.67888,209.652174 671.652174,210.625468 671.652174,211.826087 C671.652174,213.026705 670.67888,214 669.478261,214 Z M656.434783,214 C655.234164,214 654.26087,213.026705 654.26087,211.826087 C654.26087,210.625468 655.234164,209.652174 656.434783,209.652174 C657.635402,209.652174 658.608696,210.625468 658.608696,211.826087 C658.608696,213.026705 657.635402,214 656.434783,214 Z M643.391304,214 C642.190685,214 641.217391,213.026705 641.217391,211.826087 C641.217391,210.625468 642.190685,209.652174 643.391304,209.652174 C644.591923,209.652174 645.565217,210.625468 645.565217,211.826087 C645.565217,213.026705 644.591923,214 643.391304,214 Z M630.347826,214 C629.147207,214 628.173913,213.026705 628.173913,211.826087 C628.173913,210.625468 629.147207,209.652174 630.347826,209.652174 C631.548445,209.652174 632.521739,210.625468 632.521739,211.826087 C632.521739,213.026705 631.548445,214 630.347826,214 Z M617.304348,214 C616.103729,214 615.130435,213.026705 615.130435,211.826087 C615.130435,210.625468 616.103729,209.652174 617.304348,209.652174 C618.504967,209.652174 619.478261,210.625468 619.478261,211.826087 C619.478261,213.026705 618.504967,214 617.304348,214 Z M604.26087,214 C603.060251,214 602.086957,213.026705 602.086957,211.826087 C602.086957,210.625468 603.060251,209.652174 604.26087,209.652174 C605.461489,209.652174 606.434783,210.625468 606.434783,211.826087 C606.434783,213.026705 605.461489,214 604.26087,214 Z M591.217391,214 C590.016772,214 589.043478,213.026705 589.043478,211.826087 C589.043478,210.625468 590.016772,209.652174 591.217391,209.652174 C592.41801,209.652174 593.391304,210.625468 593.391304,211.826087 C593.391304,213.026705 592.41801,214 591.217391,214 Z M578.173913,214 C576.973294,214 576,213.026705 576,211.826087 C576,210.625468 576.973294,209.652174 578.173913,209.652174 C579.374532,209.652174 580.347826,210.625468 580.347826,211.826087 C580.347826,213.026705 579.374532,214 578.173913,214 Z M669.478261,200.956522 C668.277642,200.956522 667.304348,199.983227 667.304348,198.782609 C667.304348,197.58199 668.277642,196.608696 669.478261,196.608696 C670.67888,196.608696 671.652174,197.58199 671.652174,198.782609 C671.652174,199.983227 670.67888,200.956522 669.478261,200.956522 Z M656.434783,200.956522 C655.234164,200.956522 654.26087,199.983227 654.26087,198.782609 C654.26087,197.58199 655.234164,196.608696 656.434783,196.608696 C657.635402,196.608696 658.608696,197.58199 658.608696,198.782609 C658.608696,199.983227 657.635402,200.956522 656.434783,200.956522 Z M643.391304,200.956522 C642.190685,200.956522 641.217391,199.983227 641.217391,198.782609 C641.217391,197.58199 642.190685,196.608696 643.391304,196.608696 C644.591923,196.608696 645.565217,197.58199 645.565217,198.782609 C645.565217,199.983227 644.591923,200.956522 643.391304,200.956522 Z M630.347826,200.956522 C629.147207,200.956522 628.173913,199.983227 628.173913,198.782609 C628.173913,197.58199 629.147207,196.608696 630.347826,196.608696 C631.548445,196.608696 632.521739,197.58199 632.521739,198.782609 C632.521739,199.983227 631.548445,200.956522 630.347826,200.956522 Z M617.304348,200.956522 C616.103729,200.956522 615.130435,199.983227 615.130435,198.782609 C615.130435,197.58199 616.103729,196.608696 617.304348,196.608696 C618.504967,196.608696 619.478261,197.58199 619.478261,198.782609 C619.478261,199.983227 618.504967,200.956522 617.304348,200.956522 Z M604.26087,200.956522 C603.060251,200.956522 602.086957,199.983227 602.086957,198.782609 C602.086957,197.58199 603.060251,196.608696 604.26087,196.608696 C605.461489,196.608696 606.434783,197.58199 606.434783,198.782609 C606.434783,199.983227 605.461489,200.956522 604.26087,200.956522 Z M591.217391,200.956522 C590.016772,200.956522 589.043478,199.983227 589.043478,198.782609 C589.043478,197.58199 590.016772,196.608696 591.217391,196.608696 C592.41801,196.608696 593.391304,197.58199 593.391304,198.782609 C593.391304,199.983227 592.41801,200.956522 591.217391,200.956522 Z M578.173913,200.956522 C576.973294,200.956522 576,199.983227 576,198.782609 C576,197.58199 576.973294,196.608696 578.173913,196.608696 C579.374532,196.608696 580.347826,197.58199 580.347826,198.782609 C580.347826,199.983227 579.374532,200.956522 578.173913,200.956522 Z M669.478261,187.913043 C668.277642,187.913043 667.304348,186.939749 667.304348,185.73913 C667.304348,184.538512 668.277642,183.565217 669.478261,183.565217 C670.67888,183.565217 671.652174,184.538512 671.652174,185.73913 C671.652174,186.939749 670.67888,187.913043 669.478261,187.913043 Z M656.434783,187.913043 C655.234164,187.913043 654.26087,186.939749 654.26087,185.73913 C654.26087,184.538512 655.234164,183.565217 656.434783,183.565217 C657.635402,183.565217 658.608696,184.538512 658.608696,185.73913 C658.608696,186.939749 657.635402,187.913043 656.434783,187.913043 Z M643.391304,187.913043 C642.190685,187.913043 641.217391,186.939749 641.217391,185.73913 C641.217391,184.538512 642.190685,183.565217 643.391304,183.565217 C644.591923,183.565217 645.565217,184.538512 645.565217,185.73913 C645.565217,186.939749 644.591923,187.913043 643.391304,187.913043 Z M630.347826,187.913043 C629.147207,187.913043 628.173913,186.939749 628.173913,185.73913 C628.173913,184.538512 629.147207,183.565217 630.347826,183.565217 C631.548445,183.565217 632.521739,184.538512 632.521739,185.73913 C632.521739,186.939749 631.548445,187.913043 630.347826,187.913043 Z M617.304348,187.913043 C616.103729,187.913043 615.130435,186.939749 615.130435,185.73913 C615.130435,184.538512 616.103729,183.565217 617.304348,183.565217 C618.504967,183.565217 619.478261,184.538512 619.478261,185.73913 C619.478261,186.939749 618.504967,187.913043 617.304348,187.913043 Z M604.26087,187.913043 C603.060251,187.913043 602.086957,186.939749 602.086957,185.73913 C602.086957,184.538512 603.060251,183.565217 604.26087,183.565217 C605.461489,183.565217 606.434783,184.538512 606.434783,185.73913 C606.434783,186.939749 605.461489,187.913043 604.26087,187.913043 Z M591.217391,187.913043 C590.016772,187.913043 589.043478,186.939749 589.043478,185.73913 C589.043478,184.538512 590.016772,183.565217 591.217391,183.565217 C592.41801,183.565217 593.391304,184.538512 593.391304,185.73913 C593.391304,186.939749 592.41801,187.913043 591.217391,187.913043 Z M578.173913,187.913043 C576.973294,187.913043 576,186.939749 576,185.73913 C576,184.538512 576.973294,183.565217 578.173913,183.565217 C579.374532,183.565217 580.347826,184.538512 580.347826,185.73913 C580.347826,186.939749 579.374532,187.913043 578.173913,187.913043 Z M669.478261,174.869565 C668.277642,174.869565 667.304348,173.896271 667.304348,172.695652 C667.304348,171.495034 668.277642,170.521739 669.478261,170.521739 C670.67888,170.521739 671.652174,171.495034 671.652174,172.695652 C671.652174,173.896271 670.67888,174.869565 669.478261,174.869565 Z M656.434783,174.869565 C655.234164,174.869565 654.26087,173.896271 654.26087,172.695652 C654.26087,171.495034 655.234164,170.521739 656.434783,170.521739 C657.635402,170.521739 658.608696,171.495034 658.608696,172.695652 C658.608696,173.896271 657.635402,174.869565 656.434783,174.869565 Z M643.391304,174.869565 C642.190685,174.869565 641.217391,173.896271 641.217391,172.695652 C641.217391,171.495034 642.190685,170.521739 643.391304,170.521739 C644.591923,170.521739 645.565217,171.495034 645.565217,172.695652 C645.565217,173.896271 644.591923,174.869565 643.391304,174.869565 Z M630.347826,174.869565 C629.147207,174.869565 628.173913,173.896271 628.173913,172.695652 C628.173913,171.495034 629.147207,170.521739 630.347826,170.521739 C631.548445,170.521739 632.521739,171.495034 632.521739,172.695652 C632.521739,173.896271 631.548445,174.869565 630.347826,174.869565 Z M617.304348,174.869565 C616.103729,174.869565 615.130435,173.896271 615.130435,172.695652 C615.130435,171.495034 616.103729,170.521739 617.304348,170.521739 C618.504967,170.521739 619.478261,171.495034 619.478261,172.695652 C619.478261,173.896271 618.504967,174.869565 617.304348,174.869565 Z M604.26087,174.869565 C603.060251,174.869565 602.086957,173.896271 602.086957,172.695652 C602.086957,171.495034 603.060251,170.521739 604.26087,170.521739 C605.461489,170.521739 606.434783,171.495034 606.434783,172.695652 C606.434783,173.896271 605.461489,174.869565 604.26087,174.869565 Z M591.217391,174.869565 C590.016772,174.869565 589.043478,173.896271 589.043478,172.695652 C589.043478,171.495034 590.016772,170.521739 591.217391,170.521739 C592.41801,170.521739 593.391304,171.495034 593.391304,172.695652 C593.391304,173.896271 592.41801,174.869565 591.217391,174.869565 Z M578.173913,174.869565 C576.973294,174.869565 576,173.896271 576,172.695652 C576,171.495034 576.973294,170.521739 578.173913,170.521739 C579.374532,170.521739 580.347826,171.495034 580.347826,172.695652 C580.347826,173.896271 579.374532,174.869565 578.173913,174.869565 Z M669.478261,161.826087 C668.277642,161.826087 667.304348,160.852792 667.304348,159.652174 C667.304348,158.451555 668.277642,157.478261 669.478261,157.478261 C670.67888,157.478261 671.652174,158.451555 671.652174,159.652174 C671.652174,160.852792 670.67888,161.826087 669.478261,161.826087 Z M656.434783,161.826087 C655.234164,161.826087 654.26087,160.852792 654.26087,159.652174 C654.26087,158.451555 655.234164,157.478261 656.434783,157.478261 C657.635402,157.478261 658.608696,158.451555 658.608696,159.652174 C658.608696,160.852792 657.635402,161.826087 656.434783,161.826087 Z M643.391304,161.826087 C642.190685,161.826087 641.217391,160.852792 641.217391,159.652174 C641.217391,158.451555 642.190685,157.478261 643.391304,157.478261 C644.591923,157.478261 645.565217,158.451555 645.565217,159.652174 C645.565217,160.852792 644.591923,161.826087 643.391304,161.826087 Z M630.347826,161.826087 C629.147207,161.826087 628.173913,160.852792 628.173913,159.652174 C628.173913,158.451555 629.147207,157.478261 630.347826,157.478261 C631.548445,157.478261 632.521739,158.451555 632.521739,159.652174 C632.521739,160.852792 631.548445,161.826087 630.347826,161.826087 Z M617.304348,161.826087 C616.103729,161.826087 615.130435,160.852792 615.130435,159.652174 C615.130435,158.451555 616.103729,157.478261 617.304348,157.478261 C618.504967,157.478261 619.478261,158.451555 619.478261,159.652174 C619.478261,160.852792 618.504967,161.826087 617.304348,161.826087 Z M604.26087,161.826087 C603.060251,161.826087 602.086957,160.852792 602.086957,159.652174 C602.086957,158.451555 603.060251,157.478261 604.26087,157.478261 C605.461489,157.478261 606.434783,158.451555 606.434783,159.652174 C606.434783,160.852792 605.461489,161.826087 604.26087,161.826087 Z M591.217391,161.826087 C590.016772,161.826087 589.043478,160.852792 589.043478,159.652174 C589.043478,158.451555 590.016772,157.478261 591.217391,157.478261 C592.41801,157.478261 593.391304,158.451555 593.391304,159.652174 C593.391304,160.852792 592.41801,161.826087 591.217391,161.826087 Z M578.173913,161.826087 C576.973294,161.826087 576,160.852792 576,159.652174 C576,158.451555 576.973294,157.478261 578.173913,157.478261 C579.374532,157.478261 580.347826,158.451555 580.347826,159.652174 C580.347826,160.852792 579.374532,161.826087 578.173913,161.826087 Z M669.478261,148.782609 C668.277642,148.782609 667.304348,147.809314 667.304348,146.608696 C667.304348,145.408077 668.277642,144.434783 669.478261,144.434783 C670.67888,144.434783 671.652174,145.408077 671.652174,146.608696 C671.652174,147.809314 670.67888,148.782609 669.478261,148.782609 Z M656.434783,148.782609 C655.234164,148.782609 654.26087,147.809314 654.26087,146.608696 C654.26087,145.408077 655.234164,144.434783 656.434783,144.434783 C657.635402,144.434783 658.608696,145.408077 658.608696,146.608696 C658.608696,147.809314 657.635402,148.782609 656.434783,148.782609 Z M643.391304,148.782609 C642.190685,148.782609 641.217391,147.809314 641.217391,146.608696 C641.217391,145.408077 642.190685,144.434783 643.391304,144.434783 C644.591923,144.434783 645.565217,145.408077 645.565217,146.608696 C645.565217,147.809314 644.591923,148.782609 643.391304,148.782609 Z M630.347826,148.782609 C629.147207,148.782609 628.173913,147.809314 628.173913,146.608696 C628.173913,145.408077 629.147207,144.434783 630.347826,144.434783 C631.548445,144.434783 632.521739,145.408077 632.521739,146.608696 C632.521739,147.809314 631.548445,148.782609 630.347826,148.782609 Z M617.304348,148.782609 C616.103729,148.782609 615.130435,147.809314 615.130435,146.608696 C615.130435,145.408077 616.103729,144.434783 617.304348,144.434783 C618.504967,144.434783 619.478261,145.408077 619.478261,146.608696 C619.478261,147.809314 618.504967,148.782609 617.304348,148.782609 Z M604.26087,148.782609 C603.060251,148.782609 602.086957,147.809314 602.086957,146.608696 C602.086957,145.408077 603.060251,144.434783 604.26087,144.434783 C605.461489,144.434783 606.434783,145.408077 606.434783,146.608696 C606.434783,147.809314 605.461489,148.782609 604.26087,148.782609 Z M591.217391,148.782609 C590.016772,148.782609 589.043478,147.809314 589.043478,146.608696 C589.043478,145.408077 590.016772,144.434783 591.217391,144.434783 C592.41801,144.434783 593.391304,145.408077 593.391304,146.608696 C593.391304,147.809314 592.41801,148.782609 591.217391,148.782609 Z M578.173913,148.782609 C576.973294,148.782609 576,147.809314 576,146.608696 C576,145.408077 576.973294,144.434783 578.173913,144.434783 C579.374532,144.434783 580.347826,145.408077 580.347826,146.608696 C580.347826,147.809314 579.374532,148.782609 578.173913,148.782609 Z M669.478261,135.73913 C668.277642,135.73913 667.304348,134.765836 667.304348,133.565217 C667.304348,132.364599 668.277642,131.391304 669.478261,131.391304 C670.67888,131.391304 671.652174,132.364599 671.652174,133.565217 C671.652174,134.765836 670.67888,135.73913 669.478261,135.73913 Z M656.434783,135.73913 C655.234164,135.73913 654.26087,134.765836 654.26087,133.565217 C654.26087,132.364599 655.234164,131.391304 656.434783,131.391304 C657.635402,131.391304 658.608696,132.364599 658.608696,133.565217 C658.608696,134.765836 657.635402,135.73913 656.434783,135.73913 Z M643.391304,135.73913 C642.190685,135.73913 641.217391,134.765836 641.217391,133.565217 C641.217391,132.364599 642.190685,131.391304 643.391304,131.391304 C644.591923,131.391304 645.565217,132.364599 645.565217,133.565217 C645.565217,134.765836 644.591923,135.73913 643.391304,135.73913 Z M630.347826,135.73913 C629.147207,135.73913 628.173913,134.765836 628.173913,133.565217 C628.173913,132.364599 629.147207,131.391304 630.347826,131.391304 C631.548445,131.391304 632.521739,132.364599 632.521739,133.565217 C632.521739,134.765836 631.548445,135.73913 630.347826,135.73913 Z M617.304348,135.73913 C616.103729,135.73913 615.130435,134.765836 615.130435,133.565217 C615.130435,132.364599 616.103729,131.391304 617.304348,131.391304 C618.504967,131.391304 619.478261,132.364599 619.478261,133.565217 C619.478261,134.765836 618.504967,135.73913 617.304348,135.73913 Z M604.26087,135.73913 C603.060251,135.73913 602.086957,134.765836 602.086957,133.565217 C602.086957,132.364599 603.060251,131.391304 604.26087,131.391304 C605.461489,131.391304 606.434783,132.364599 606.434783,133.565217 C606.434783,134.765836 605.461489,135.73913 604.26087,135.73913 Z M591.217391,135.73913 C590.016772,135.73913 589.043478,134.765836 589.043478,133.565217 C589.043478,132.364599 590.016772,131.391304 591.217391,131.391304 C592.41801,131.391304 593.391304,132.364599 593.391304,133.565217 C593.391304,134.765836 592.41801,135.73913 591.217391,135.73913 Z M578.173913,135.73913 C576.973294,135.73913 576,134.765836 576,133.565217 C576,132.364599 576.973294,131.391304 578.173913,131.391304 C579.374532,131.391304 580.347826,132.364599 580.347826,133.565217 C580.347826,134.765836 579.374532,135.73913 578.173913,135.73913 Z M669.478261,122.695652 C668.277642,122.695652 667.304348,121.722358 667.304348,120.521739 C667.304348,119.32112 668.277642,118.347826 669.478261,118.347826 C670.67888,118.347826 671.652174,119.32112 671.652174,120.521739 C671.652174,121.722358 670.67888,122.695652 669.478261,122.695652 Z M656.434783,122.695652 C655.234164,122.695652 654.26087,121.722358 654.26087,120.521739 C654.26087,119.32112 655.234164,118.347826 656.434783,118.347826 C657.635402,118.347826 658.608696,119.32112 658.608696,120.521739 C658.608696,121.722358 657.635402,122.695652 656.434783,122.695652 Z M643.391304,122.695652 C642.190685,122.695652 641.217391,121.722358 641.217391,120.521739 C641.217391,119.32112 642.190685,118.347826 643.391304,118.347826 C644.591923,118.347826 645.565217,119.32112 645.565217,120.521739 C645.565217,121.722358 644.591923,122.695652 643.391304,122.695652 Z M630.347826,122.695652 C629.147207,122.695652 628.173913,121.722358 628.173913,120.521739 C628.173913,119.32112 629.147207,118.347826 630.347826,118.347826 C631.548445,118.347826 632.521739,119.32112 632.521739,120.521739 C632.521739,121.722358 631.548445,122.695652 630.347826,122.695652 Z M617.304348,122.695652 C616.103729,122.695652 615.130435,121.722358 615.130435,120.521739 C615.130435,119.32112 616.103729,118.347826 617.304348,118.347826 C618.504967,118.347826 619.478261,119.32112 619.478261,120.521739 C619.478261,121.722358 618.504967,122.695652 617.304348,122.695652 Z M604.26087,122.695652 C603.060251,122.695652 602.086957,121.722358 602.086957,120.521739 C602.086957,119.32112 603.060251,118.347826 604.26087,118.347826 C605.461489,118.347826 606.434783,119.32112 606.434783,120.521739 C606.434783,121.722358 605.461489,122.695652 604.26087,122.695652 Z M591.217391,122.695652 C590.016772,122.695652 589.043478,121.722358 589.043478,120.521739 C589.043478,119.32112 590.016772,118.347826 591.217391,118.347826 C592.41801,118.347826 593.391304,119.32112 593.391304,120.521739 C593.391304,121.722358 592.41801,122.695652 591.217391,122.695652 Z M578.173913,122.695652 C576.973294,122.695652 576,121.722358 576,120.521739 C576,119.32112 576.973294,118.347826 578.173913,118.347826 C579.374532,118.347826 580.347826,119.32112 580.347826,120.521739 C580.347826,121.722358 579.374532,122.695652 578.173913,122.695652 Z M669.478261,109.652174 C668.277642,109.652174 667.304348,108.67888 667.304348,107.478261 C667.304348,106.277642 668.277642,105.304348 669.478261,105.304348 C670.67888,105.304348 671.652174,106.277642 671.652174,107.478261 C671.652174,108.67888 670.67888,109.652174 669.478261,109.652174 Z M656.434783,109.652174 C655.234164,109.652174 654.26087,108.67888 654.26087,107.478261 C654.26087,106.277642 655.234164,105.304348 656.434783,105.304348 C657.635402,105.304348 658.608696,106.277642 658.608696,107.478261 C658.608696,108.67888 657.635402,109.652174 656.434783,109.652174 Z M643.391304,109.652174 C642.190685,109.652174 641.217391,108.67888 641.217391,107.478261 C641.217391,106.277642 642.190685,105.304348 643.391304,105.304348 C644.591923,105.304348 645.565217,106.277642 645.565217,107.478261 C645.565217,108.67888 644.591923,109.652174 643.391304,109.652174 Z M630.347826,109.652174 C629.147207,109.652174 628.173913,108.67888 628.173913,107.478261 C628.173913,106.277642 629.147207,105.304348 630.347826,105.304348 C631.548445,105.304348 632.521739,106.277642 632.521739,107.478261 C632.521739,108.67888 631.548445,109.652174 630.347826,109.652174 Z M617.304348,109.652174 C616.103729,109.652174 615.130435,108.67888 615.130435,107.478261 C615.130435,106.277642 616.103729,105.304348 617.304348,105.304348 C618.504967,105.304348 619.478261,106.277642 619.478261,107.478261 C619.478261,108.67888 618.504967,109.652174 617.304348,109.652174 Z M604.26087,109.652174 C603.060251,109.652174 602.086957,108.67888 602.086957,107.478261 C602.086957,106.277642 603.060251,105.304348 604.26087,105.304348 C605.461489,105.304348 606.434783,106.277642 606.434783,107.478261 C606.434783,108.67888 605.461489,109.652174 604.26087,109.652174 Z M591.217391,109.652174 C590.016772,109.652174 589.043478,108.67888 589.043478,107.478261 C589.043478,106.277642 590.016772,105.304348 591.217391,105.304348 C592.41801,105.304348 593.391304,106.277642 593.391304,107.478261 C593.391304,108.67888 592.41801,109.652174 591.217391,109.652174 Z M578.173913,109.652174 C576.973294,109.652174 576,108.67888 576,107.478261 C576,106.277642 576.973294,105.304348 578.173913,105.304348 C579.374532,105.304348 580.347826,106.277642 580.347826,107.478261 C580.347826,108.67888 579.374532,109.652174 578.173913,109.652174 Z M669.478261,96.6086957 C668.277642,96.6086957 667.304348,95.6354016 667.304348,94.4347826 C667.304348,93.2341636 668.277642,92.2608696 669.478261,92.2608696 C670.67888,92.2608696 671.652174,93.2341636 671.652174,94.4347826 C671.652174,95.6354016 670.67888,96.6086957 669.478261,96.6086957 Z M656.434783,96.6086957 C655.234164,96.6086957 654.26087,95.6354016 654.26087,94.4347826 C654.26087,93.2341636 655.234164,92.2608696 656.434783,92.2608696 C657.635402,92.2608696 658.608696,93.2341636 658.608696,94.4347826 C658.608696,95.6354016 657.635402,96.6086957 656.434783,96.6086957 Z M643.391304,96.6086957 C642.190685,96.6086957 641.217391,95.6354016 641.217391,94.4347826 C641.217391,93.2341636 642.190685,92.2608696 643.391304,92.2608696 C644.591923,92.2608696 645.565217,93.2341636 645.565217,94.4347826 C645.565217,95.6354016 644.591923,96.6086957 643.391304,96.6086957 Z M630.347826,96.6086957 C629.147207,96.6086957 628.173913,95.6354016 628.173913,94.4347826 C628.173913,93.2341636 629.147207,92.2608696 630.347826,92.2608696 C631.548445,92.2608696 632.521739,93.2341636 632.521739,94.4347826 C632.521739,95.6354016 631.548445,96.6086957 630.347826,96.6086957 Z M617.304348,96.6086957 C616.103729,96.6086957 615.130435,95.6354016 615.130435,94.4347826 C615.130435,93.2341636 616.103729,92.2608696 617.304348,92.2608696 C618.504967,92.2608696 619.478261,93.2341636 619.478261,94.4347826 C619.478261,95.6354016 618.504967,96.6086957 617.304348,96.6086957 Z M604.26087,96.6086957 C603.060251,96.6086957 602.086957,95.6354016 602.086957,94.4347826 C602.086957,93.2341636 603.060251,92.2608696 604.26087,92.2608696 C605.461489,92.2608696 606.434783,93.2341636 606.434783,94.4347826 C606.434783,95.6354016 605.461489,96.6086957 604.26087,96.6086957 Z M591.217391,96.6086957 C590.016772,96.6086957 589.043478,95.6354016 589.043478,94.4347826 C589.043478,93.2341636 590.016772,92.2608696 591.217391,92.2608696 C592.41801,92.2608696 593.391304,93.2341636 593.391304,94.4347826 C593.391304,95.6354016 592.41801,96.6086957 591.217391,96.6086957 Z M578.173913,96.6086957 C576.973294,96.6086957 576,95.6354016 576,94.4347826 C576,93.2341636 576.973294,92.2608696 578.173913,92.2608696 C579.374532,92.2608696 580.347826,93.2341636 580.347826,94.4347826 C580.347826,95.6354016 579.374532,96.6086957 578.173913,96.6086957 Z M669.478261,83.5652174 C668.277642,83.5652174 667.304348,82.5919234 667.304348,81.3913043 C667.304348,80.1906853 668.277642,79.2173913 669.478261,79.2173913 C670.67888,79.2173913 671.652174,80.1906853 671.652174,81.3913043 C671.652174,82.5919234 670.67888,83.5652174 669.478261,83.5652174 Z M656.434783,83.5652174 C655.234164,83.5652174 654.26087,82.5919234 654.26087,81.3913043 C654.26087,80.1906853 655.234164,79.2173913 656.434783,79.2173913 C657.635402,79.2173913 658.608696,80.1906853 658.608696,81.3913043 C658.608696,82.5919234 657.635402,83.5652174 656.434783,83.5652174 Z M643.391304,83.5652174 C642.190685,83.5652174 641.217391,82.5919234 641.217391,81.3913043 C641.217391,80.1906853 642.190685,79.2173913 643.391304,79.2173913 C644.591923,79.2173913 645.565217,80.1906853 645.565217,81.3913043 C645.565217,82.5919234 644.591923,83.5652174 643.391304,83.5652174 Z M630.347826,83.5652174 C629.147207,83.5652174 628.173913,82.5919234 628.173913,81.3913043 C628.173913,80.1906853 629.147207,79.2173913 630.347826,79.2173913 C631.548445,79.2173913 632.521739,80.1906853 632.521739,81.3913043 C632.521739,82.5919234 631.548445,83.5652174 630.347826,83.5652174 Z M617.304348,83.5652174 C616.103729,83.5652174 615.130435,82.5919234 615.130435,81.3913043 C615.130435,80.1906853 616.103729,79.2173913 617.304348,79.2173913 C618.504967,79.2173913 619.478261,80.1906853 619.478261,81.3913043 C619.478261,82.5919234 618.504967,83.5652174 617.304348,83.5652174 Z M604.26087,83.5652174 C603.060251,83.5652174 602.086957,82.5919234 602.086957,81.3913043 C602.086957,80.1906853 603.060251,79.2173913 604.26087,79.2173913 C605.461489,79.2173913 606.434783,80.1906853 606.434783,81.3913043 C606.434783,82.5919234 605.461489,83.5652174 604.26087,83.5652174 Z M591.217391,83.5652174 C590.016772,83.5652174 589.043478,82.5919234 589.043478,81.3913043 C589.043478,80.1906853 590.016772,79.2173913 591.217391,79.2173913 C592.41801,79.2173913 593.391304,80.1906853 593.391304,81.3913043 C593.391304,82.5919234 592.41801,83.5652174 591.217391,83.5652174 Z M578.173913,83.5652174 C576.973294,83.5652174 576,82.5919234 576,81.3913043 C576,80.1906853 576.973294,79.2173913 578.173913,79.2173913 C579.374532,79.2173913 580.347826,80.1906853 580.347826,81.3913043 C580.347826,82.5919234 579.374532,83.5652174 578.173913,83.5652174 Z M669.478261,70.5217391 C668.277642,70.5217391 667.304348,69.5484451 667.304348,68.3478261 C667.304348,67.1472071 668.277642,66.173913 669.478261,66.173913 C670.67888,66.173913 671.652174,67.1472071 671.652174,68.3478261 C671.652174,69.5484451 670.67888,70.5217391 669.478261,70.5217391 Z M656.434783,70.5217391 C655.234164,70.5217391 654.26087,69.5484451 654.26087,68.3478261 C654.26087,67.1472071 655.234164,66.173913 656.434783,66.173913 C657.635402,66.173913 658.608696,67.1472071 658.608696,68.3478261 C658.608696,69.5484451 657.635402,70.5217391 656.434783,70.5217391 Z M643.391304,70.5217391 C642.190685,70.5217391 641.217391,69.5484451 641.217391,68.3478261 C641.217391,67.1472071 642.190685,66.173913 643.391304,66.173913 C644.591923,66.173913 645.565217,67.1472071 645.565217,68.3478261 C645.565217,69.5484451 644.591923,70.5217391 643.391304,70.5217391 Z M630.347826,70.5217391 C629.147207,70.5217391 628.173913,69.5484451 628.173913,68.3478261 C628.173913,67.1472071 629.147207,66.173913 630.347826,66.173913 C631.548445,66.173913 632.521739,67.1472071 632.521739,68.3478261 C632.521739,69.5484451 631.548445,70.5217391 630.347826,70.5217391 Z M617.304348,70.5217391 C616.103729,70.5217391 615.130435,69.5484451 615.130435,68.3478261 C615.130435,67.1472071 616.103729,66.173913 617.304348,66.173913 C618.504967,66.173913 619.478261,67.1472071 619.478261,68.3478261 C619.478261,69.5484451 618.504967,70.5217391 617.304348,70.5217391 Z M604.26087,70.5217391 C603.060251,70.5217391 602.086957,69.5484451 602.086957,68.3478261 C602.086957,67.1472071 603.060251,66.173913 604.26087,66.173913 C605.461489,66.173913 606.434783,67.1472071 606.434783,68.3478261 C606.434783,69.5484451 605.461489,70.5217391 604.26087,70.5217391 Z M591.217391,70.5217391 C590.016772,70.5217391 589.043478,69.5484451 589.043478,68.3478261 C589.043478,67.1472071 590.016772,66.173913 591.217391,66.173913 C592.41801,66.173913 593.391304,67.1472071 593.391304,68.3478261 C593.391304,69.5484451 592.41801,70.5217391 591.217391,70.5217391 Z M578.173913,70.5217391 C576.973294,70.5217391 576,69.5484451 576,68.3478261 C576,67.1472071 576.973294,66.173913 578.173913,66.173913 C579.374532,66.173913 580.347826,67.1472071 580.347826,68.3478261 C580.347826,69.5484451 579.374532,70.5217391 578.173913,70.5217391 Z M669.478261,57.4782609 C668.277642,57.4782609 667.304348,56.5049668 667.304348,55.3043478 C667.304348,54.1037288 668.277642,53.1304348 669.478261,53.1304348 C670.67888,53.1304348 671.652174,54.1037288 671.652174,55.3043478 C671.652174,56.5049668 670.67888,57.4782609 669.478261,57.4782609 Z M656.434783,57.4782609 C655.234164,57.4782609 654.26087,56.5049668 654.26087,55.3043478 C654.26087,54.1037288 655.234164,53.1304348 656.434783,53.1304348 C657.635402,53.1304348 658.608696,54.1037288 658.608696,55.3043478 C658.608696,56.5049668 657.635402,57.4782609 656.434783,57.4782609 Z M643.391304,57.4782609 C642.190685,57.4782609 641.217391,56.5049668 641.217391,55.3043478 C641.217391,54.1037288 642.190685,53.1304348 643.391304,53.1304348 C644.591923,53.1304348 645.565217,54.1037288 645.565217,55.3043478 C645.565217,56.5049668 644.591923,57.4782609 643.391304,57.4782609 Z M630.347826,57.4782609 C629.147207,57.4782609 628.173913,56.5049668 628.173913,55.3043478 C628.173913,54.1037288 629.147207,53.1304348 630.347826,53.1304348 C631.548445,53.1304348 632.521739,54.1037288 632.521739,55.3043478 C632.521739,56.5049668 631.548445,57.4782609 630.347826,57.4782609 Z M617.304348,57.4782609 C616.103729,57.4782609 615.130435,56.5049668 615.130435,55.3043478 C615.130435,54.1037288 616.103729,53.1304348 617.304348,53.1304348 C618.504967,53.1304348 619.478261,54.1037288 619.478261,55.3043478 C619.478261,56.5049668 618.504967,57.4782609 617.304348,57.4782609 Z M604.26087,57.4782609 C603.060251,57.4782609 602.086957,56.5049668 602.086957,55.3043478 C602.086957,54.1037288 603.060251,53.1304348 604.26087,53.1304348 C605.461489,53.1304348 606.434783,54.1037288 606.434783,55.3043478 C606.434783,56.5049668 605.461489,57.4782609 604.26087,57.4782609 Z M591.217391,57.4782609 C590.016772,57.4782609 589.043478,56.5049668 589.043478,55.3043478 C589.043478,54.1037288 590.016772,53.1304348 591.217391,53.1304348 C592.41801,53.1304348 593.391304,54.1037288 593.391304,55.3043478 C593.391304,56.5049668 592.41801,57.4782609 591.217391,57.4782609 Z M578.173913,57.4782609 C576.973294,57.4782609 576,56.5049668 576,55.3043478 C576,54.1037288 576.973294,53.1304348 578.173913,53.1304348 C579.374532,53.1304348 580.347826,54.1037288 580.347826,55.3043478 C580.347826,56.5049668 579.374532,57.4782609 578.173913,57.4782609 Z M669.478261,44.4347826 C668.277642,44.4347826 667.304348,43.4614886 667.304348,42.2608696 C667.304348,41.0602505 668.277642,40.0869565 669.478261,40.0869565 C670.67888,40.0869565 671.652174,41.0602505 671.652174,42.2608696 C671.652174,43.4614886 670.67888,44.4347826 669.478261,44.4347826 Z M656.434783,44.4347826 C655.234164,44.4347826 654.26087,43.4614886 654.26087,42.2608696 C654.26087,41.0602505 655.234164,40.0869565 656.434783,40.0869565 C657.635402,40.0869565 658.608696,41.0602505 658.608696,42.2608696 C658.608696,43.4614886 657.635402,44.4347826 656.434783,44.4347826 Z M643.391304,44.4347826 C642.190685,44.4347826 641.217391,43.4614886 641.217391,42.2608696 C641.217391,41.0602505 642.190685,40.0869565 643.391304,40.0869565 C644.591923,40.0869565 645.565217,41.0602505 645.565217,42.2608696 C645.565217,43.4614886 644.591923,44.4347826 643.391304,44.4347826 Z M630.347826,44.4347826 C629.147207,44.4347826 628.173913,43.4614886 628.173913,42.2608696 C628.173913,41.0602505 629.147207,40.0869565 630.347826,40.0869565 C631.548445,40.0869565 632.521739,41.0602505 632.521739,42.2608696 C632.521739,43.4614886 631.548445,44.4347826 630.347826,44.4347826 Z M617.304348,44.4347826 C616.103729,44.4347826 615.130435,43.4614886 615.130435,42.2608696 C615.130435,41.0602505 616.103729,40.0869565 617.304348,40.0869565 C618.504967,40.0869565 619.478261,41.0602505 619.478261,42.2608696 C619.478261,43.4614886 618.504967,44.4347826 617.304348,44.4347826 Z M604.26087,44.4347826 C603.060251,44.4347826 602.086957,43.4614886 602.086957,42.2608696 C602.086957,41.0602505 603.060251,40.0869565 604.26087,40.0869565 C605.461489,40.0869565 606.434783,41.0602505 606.434783,42.2608696 C606.434783,43.4614886 605.461489,44.4347826 604.26087,44.4347826 Z M591.217391,44.4347826 C590.016772,44.4347826 589.043478,43.4614886 589.043478,42.2608696 C589.043478,41.0602505 590.016772,40.0869565 591.217391,40.0869565 C592.41801,40.0869565 593.391304,41.0602505 593.391304,42.2608696 C593.391304,43.4614886 592.41801,44.4347826 591.217391,44.4347826 Z M578.173913,44.4347826 C576.973294,44.4347826 576,43.4614886 576,42.2608696 C576,41.0602505 576.973294,40.0869565 578.173913,40.0869565 C579.374532,40.0869565 580.347826,41.0602505 580.347826,42.2608696 C580.347826,43.4614886 579.374532,44.4347826 578.173913,44.4347826 Z M669.478261,31.3913043 C668.277642,31.3913043 667.304348,30.4180103 667.304348,29.2173913 C667.304348,28.0167723 668.277642,27.0434783 669.478261,27.0434783 C670.67888,27.0434783 671.652174,28.0167723 671.652174,29.2173913 C671.652174,30.4180103 670.67888,31.3913043 669.478261,31.3913043 Z M656.434783,31.3913043 C655.234164,31.3913043 654.26087,30.4180103 654.26087,29.2173913 C654.26087,28.0167723 655.234164,27.0434783 656.434783,27.0434783 C657.635402,27.0434783 658.608696,28.0167723 658.608696,29.2173913 C658.608696,30.4180103 657.635402,31.3913043 656.434783,31.3913043 Z M643.391304,31.3913043 C642.190685,31.3913043 641.217391,30.4180103 641.217391,29.2173913 C641.217391,28.0167723 642.190685,27.0434783 643.391304,27.0434783 C644.591923,27.0434783 645.565217,28.0167723 645.565217,29.2173913 C645.565217,30.4180103 644.591923,31.3913043 643.391304,31.3913043 Z M630.347826,31.3913043 C629.147207,31.3913043 628.173913,30.4180103 628.173913,29.2173913 C628.173913,28.0167723 629.147207,27.0434783 630.347826,27.0434783 C631.548445,27.0434783 632.521739,28.0167723 632.521739,29.2173913 C632.521739,30.4180103 631.548445,31.3913043 630.347826,31.3913043 Z M617.304348,31.3913043 C616.103729,31.3913043 615.130435,30.4180103 615.130435,29.2173913 C615.130435,28.0167723 616.103729,27.0434783 617.304348,27.0434783 C618.504967,27.0434783 619.478261,28.0167723 619.478261,29.2173913 C619.478261,30.4180103 618.504967,31.3913043 617.304348,31.3913043 Z M604.26087,31.3913043 C603.060251,31.3913043 602.086957,30.4180103 602.086957,29.2173913 C602.086957,28.0167723 603.060251,27.0434783 604.26087,27.0434783 C605.461489,27.0434783 606.434783,28.0167723 606.434783,29.2173913 C606.434783,30.4180103 605.461489,31.3913043 604.26087,31.3913043 Z M591.217391,31.3913043 C590.016772,31.3913043 589.043478,30.4180103 589.043478,29.2173913 C589.043478,28.0167723 590.016772,27.0434783 591.217391,27.0434783 C592.41801,27.0434783 593.391304,28.0167723 593.391304,29.2173913 C593.391304,30.4180103 592.41801,31.3913043 591.217391,31.3913043 Z M578.173913,31.3913043 C576.973294,31.3913043 576,30.4180103 576,29.2173913 C576,28.0167723 576.973294,27.0434783 578.173913,27.0434783 C579.374532,27.0434783 580.347826,28.0167723 580.347826,29.2173913 C580.347826,30.4180103 579.374532,31.3913043 578.173913,31.3913043 Z M669.478261,18.3478261 C668.277642,18.3478261 667.304348,17.3745321 667.304348,16.173913 C667.304348,14.973294 668.277642,14 669.478261,14 C670.67888,14 671.652174,14.973294 671.652174,16.173913 C671.652174,17.3745321 670.67888,18.3478261 669.478261,18.3478261 Z M656.434783,18.3478261 C655.234164,18.3478261 654.26087,17.3745321 654.26087,16.173913 C654.26087,14.973294 655.234164,14 656.434783,14 C657.635402,14 658.608696,14.973294 658.608696,16.173913 C658.608696,17.3745321 657.635402,18.3478261 656.434783,18.3478261 Z M643.391304,18.3478261 C642.190685,18.3478261 641.217391,17.3745321 641.217391,16.173913 C641.217391,14.973294 642.190685,14 643.391304,14 C644.591923,14 645.565217,14.973294 645.565217,16.173913 C645.565217,17.3745321 644.591923,18.3478261 643.391304,18.3478261 Z M630.347826,18.3478261 C629.147207,18.3478261 628.173913,17.3745321 628.173913,16.173913 C628.173913,14.973294 629.147207,14 630.347826,14 C631.548445,14 632.521739,14.973294 632.521739,16.173913 C632.521739,17.3745321 631.548445,18.3478261 630.347826,18.3478261 Z M617.304348,18.3478261 C616.103729,18.3478261 615.130435,17.3745321 615.130435,16.173913 C615.130435,14.973294 616.103729,14 617.304348,14 C618.504967,14 619.478261,14.973294 619.478261,16.173913 C619.478261,17.3745321 618.504967,18.3478261 617.304348,18.3478261 Z M604.26087,18.3478261 C603.060251,18.3478261 602.086957,17.3745321 602.086957,16.173913 C602.086957,14.973294 603.060251,14 604.26087,14 C605.461489,14 606.434783,14.973294 606.434783,16.173913 C606.434783,17.3745321 605.461489,18.3478261 604.26087,18.3478261 Z M591.217391,18.3478261 C590.016772,18.3478261 589.043478,17.3745321 589.043478,16.173913 C589.043478,14.973294 590.016772,14 591.217391,14 C592.41801,14 593.391304,14.973294 593.391304,16.173913 C593.391304,17.3745321 592.41801,18.3478261 591.217391,18.3478261 Z M578.173913,18.3478261 C576.973294,18.3478261 576,17.3745321 576,16.173913 C576,14.973294 576.973294,14 578.173913,14 C579.374532,14 580.347826,14.973294 580.347826,16.173913 C580.347826,17.3745321 579.374532,18.3478261 578.173913,18.3478261 Z" id="dot-grid-copy"></path>
        </g>
    </g>
</svg>