<svg width="157" height="58" viewBox="0 0 157 58" fill="none" xmlns="http://www.w3.org/2000/svg">
<path d="M150.424 0H6C2.68629 0 0 2.68629 0 6V52C0 55.3137 2.68629 58 6 58H150.424C153.738 58 156.424 55.3137 156.424 52V6C156.424 2.68629 153.738 0 150.424 0Z" fill="#19145C"/>
<path d="M150.424 0H6C2.68629 0 0 2.68629 0 6V52C0 55.3137 2.68629 58 6 58H150.424C153.738 58 156.424 55.3137 156.424 52V6C156.424 2.68629 153.738 0 150.424 0Z" fill="#19145C"/>
<path d="M39.2696 27.9401C39.239 24.6285 42.0507 23.0173 42.1793 22.9423C40.5869 20.6788 38.1188 20.3695 37.2515 20.3448C35.1786 20.1321 33.1678 21.5542 32.1119 21.5542C31.0348 21.5542 29.4088 20.3654 27.6562 20.4003C25.401 20.4342 23.2912 21.7073 22.134 23.6842C19.746 27.7151 21.527 33.6386 23.8149 36.8968C24.9594 38.4925 26.2967 40.2742 28.0472 40.2116C29.7597 40.1427 30.3994 39.1471 32.466 39.1471C34.5136 39.1471 35.1143 40.2116 36.8995 40.1715C38.7374 40.1427 39.8945 38.5686 40.999 36.9585C42.3215 35.1295 42.8527 33.3283 42.8738 33.2358C42.8306 33.2215 39.3044 31.9093 39.2696 27.9401Z" fill="white"/>
<path d="M35.8965 18.2015C36.8176 17.0784 37.4478 15.5505 37.2728 14C35.9397 14.0575 34.2725 14.8991 33.3125 15.9975C32.4631 16.9654 31.7043 18.5518 31.9003 20.0438C33.3978 20.1527 34.9354 19.307 35.8965 18.2015Z" fill="white"/>
<path d="M64.0529 39.9831H61.6596L60.3486 35.9666H55.7918L54.5429 39.9831H52.2129L56.7276 26.3091H59.5161L64.0529 39.9831ZM59.9534 34.2815L58.7678 30.7109C58.6424 30.3461 58.4074 29.4871 58.0607 28.135H58.0185C57.8805 28.7165 57.6581 29.5755 57.3525 30.7109L56.188 34.2815H59.9534Z" fill="white"/>
<path d="M75.6624 34.9312C75.6624 36.608 75.1977 37.9335 74.2682 38.9066C73.4356 39.7728 72.4018 40.2053 71.1677 40.2053C69.8357 40.2053 68.8788 39.7388 68.296 38.8059H68.2539V43.9999H66.0071V33.3683C66.0071 32.3141 65.9786 31.2322 65.9238 30.1225H67.8998L68.0252 31.6853H68.0673C68.8166 30.5078 69.9537 29.92 71.4797 29.92C72.6726 29.92 73.6685 30.3793 74.4652 31.2989C75.264 32.2196 75.6624 33.43 75.6624 34.9312ZM73.3734 35.0113C73.3734 34.0516 73.1521 33.2605 72.7074 32.6378C72.2216 31.9884 71.5693 31.6637 70.7515 31.6637C70.1971 31.6637 69.6934 31.8446 69.2434 32.2011C68.7924 32.5607 68.4973 33.0303 68.3592 33.6119C68.2897 33.8831 68.2549 34.1051 68.2549 34.2797V35.9237C68.2549 36.6409 68.4804 37.2461 68.9315 37.7404C69.3825 38.2346 69.9685 38.4812 70.6893 38.4812C71.5355 38.4812 72.1942 38.1627 72.6653 37.5277C73.1374 36.8916 73.3734 36.0532 73.3734 35.0113Z" fill="white"/>
<path d="M87.2941 34.9312C87.2941 36.608 86.8294 37.9335 85.8988 38.9066C85.0674 39.7728 84.0335 40.2053 82.7995 40.2053C81.4674 40.2053 80.5105 39.7388 79.9288 38.8059H79.8866V43.9999H77.6398V33.3683C77.6398 32.3141 77.6114 31.2322 77.5566 30.1225H79.5325L79.658 31.6853H79.7001C80.4483 30.5078 81.5854 29.92 83.1125 29.92C84.3044 29.92 85.3003 30.3793 86.0991 31.2989C86.8947 32.2196 87.2941 33.43 87.2941 34.9312ZM85.0052 35.0113C85.0052 34.0516 84.7828 33.2605 84.3381 32.6378C83.8523 31.9884 83.202 31.6637 82.3832 31.6637C81.8278 31.6637 81.3251 31.8446 80.8741 32.2011C80.4231 32.5607 80.129 33.0303 79.991 33.6119C79.9225 33.8831 79.8866 34.1051 79.8866 34.2797V35.9237C79.8866 36.6409 80.1122 37.2461 80.5611 37.7404C81.0121 38.2336 81.5981 38.4812 82.321 38.4812C83.1673 38.4812 83.8259 38.1627 84.297 37.5277C84.7691 36.8916 85.0052 36.0532 85.0052 35.0113Z" fill="white"/>
<path d="M100.298 36.1479C100.298 37.311 99.8841 38.2573 99.0526 38.9879C98.1389 39.7863 96.8669 40.1849 95.2324 40.1849C93.7233 40.1849 92.5135 39.9013 91.5977 39.3331L92.1183 37.5073C93.1047 38.0888 94.187 38.3806 95.3662 38.3806C96.2125 38.3806 96.8711 38.1936 97.3443 37.8217C97.8154 37.4497 98.0504 36.9503 98.0504 36.3277C98.0504 35.7728 97.8565 35.3053 97.4676 34.9262C97.0809 34.547 96.4348 34.1946 95.5328 33.8689C93.0773 32.976 91.8506 31.668 91.8506 29.9479C91.8506 28.8238 92.2806 27.9022 93.1416 27.185C93.9994 26.4668 95.1439 26.1082 96.575 26.1082C97.8512 26.1082 98.9114 26.325 99.7576 26.7575L99.1959 28.5433C98.4055 28.1241 97.5119 27.9145 96.5118 27.9145C95.7214 27.9145 95.1038 28.1046 94.6612 28.4827C94.2871 28.8208 94.0995 29.2328 94.0995 29.7208C94.0995 30.2613 94.3135 30.7083 94.7434 31.0597C95.1175 31.3844 95.7973 31.7358 96.7837 32.1149C97.9903 32.5886 98.8766 33.1424 99.4467 33.7774C100.014 34.4104 100.298 35.2026 100.298 36.1479Z" fill="white"/>
<path d="M107.727 31.7665H105.25V36.5537C105.25 37.7712 105.686 38.3795 106.561 38.3795C106.962 38.3795 107.296 38.3456 107.559 38.2778L107.621 39.9413C107.179 40.1026 106.596 40.1838 105.874 40.1838C104.987 40.1838 104.293 39.9198 103.793 39.3926C103.294 38.8645 103.043 37.9788 103.043 36.7345V31.7645H101.568V30.1205H103.043V28.3152L105.25 27.6658V30.1205H107.727V31.7665Z" fill="white"/>
<path d="M118.901 34.9713C118.901 36.4869 118.457 37.7312 117.569 38.7042C116.639 39.706 115.404 40.2054 113.864 40.2054C112.38 40.2054 111.199 39.7256 110.318 38.7659C109.437 37.8062 108.996 36.5948 108.996 35.1347C108.996 33.6068 109.449 32.3553 110.359 31.3823C111.266 30.4082 112.491 29.9211 114.031 29.9211C115.514 29.9211 116.708 30.401 117.609 31.3617C118.471 32.2936 118.901 33.4968 118.901 34.9713ZM116.57 35.0422C116.57 34.1329 116.371 33.353 115.968 32.7026C115.496 31.9155 114.823 31.523 113.95 31.523C113.047 31.523 112.361 31.9166 111.89 32.7026C111.487 33.354 111.287 34.1462 111.287 35.0833C111.287 35.9926 111.487 36.7725 111.89 37.4219C112.376 38.209 113.055 38.6015 113.93 38.6015C114.788 38.6015 115.462 38.2007 115.948 37.4014C116.362 36.7386 116.57 35.9505 116.57 35.0422Z" fill="white"/>
<path d="M126.206 32.049C125.983 32.009 125.746 31.9884 125.497 31.9884C124.707 31.9884 124.096 32.2792 123.666 32.8618C123.292 33.3755 123.104 34.0249 123.104 34.8089V39.9824H120.858L120.879 33.2276C120.879 32.0912 120.851 31.0565 120.795 30.1235H122.752L122.834 32.01H122.897C123.134 31.3616 123.508 30.8397 124.02 30.4482C124.521 30.0957 125.061 29.92 125.644 29.92C125.852 29.92 126.039 29.9344 126.206 29.9601V32.049Z" fill="white"/>
<path d="M136.253 34.586C136.253 34.9785 136.227 35.3093 136.171 35.5796H129.43C129.457 36.5537 129.782 37.2986 130.408 37.8123C130.976 38.2716 131.711 38.5018 132.613 38.5018C133.611 38.5018 134.522 38.3466 135.34 38.0353L135.692 39.556C134.736 39.9629 133.606 40.1653 132.302 40.1653C130.734 40.1653 129.503 39.7153 128.607 38.8162C127.714 37.9171 127.266 36.7098 127.266 35.1953C127.266 33.7085 127.682 32.4704 128.516 31.4829C129.388 30.4287 130.568 29.9016 132.051 29.9016C133.509 29.9016 134.612 30.4287 135.362 31.4829C135.955 32.3203 136.253 33.3561 136.253 34.586ZM134.111 34.0178C134.125 33.3684 133.979 32.8074 133.674 32.3337C133.285 31.7244 132.688 31.4203 131.884 31.4203C131.149 31.4203 130.552 31.7172 130.095 32.3132C129.721 32.7868 129.499 33.355 129.43 34.0168H134.111V34.0178Z" fill="white"/>
<path d="M59.2102 17.8963C59.2102 19.1057 58.8382 20.0161 58.0953 20.6274C57.4071 21.1915 56.4291 21.4741 55.1624 21.4741C54.5343 21.4741 53.9969 21.4474 53.5469 21.394V14.7861C54.1339 14.6936 54.7662 14.6464 55.4491 14.6464C56.6557 14.6464 57.5652 14.9022 58.1785 15.4139C58.8656 15.9924 59.2102 16.8195 59.2102 17.8963ZM58.0457 17.9261C58.0457 17.1422 57.8329 16.5411 57.4071 16.1219C56.9814 15.7037 56.3596 15.4941 55.5407 15.4941C55.193 15.4941 54.8968 15.5167 54.6513 15.5639V20.5874C54.7872 20.6079 55.0359 20.6172 55.3974 20.6172C56.2426 20.6172 56.8949 20.388 57.3544 19.9298C57.8139 19.4715 58.0457 18.8036 58.0457 17.9261Z" fill="white" stroke="white" stroke-width="0.2"/>
<path d="M65.3852 18.9526C65.3852 19.6975 65.167 20.3078 64.7307 20.7866C64.2734 21.2788 63.6674 21.5244 62.9107 21.5244C62.1815 21.5244 61.6008 21.2891 61.1677 20.8164C60.7356 20.3448 60.5195 19.7499 60.5195 19.0327C60.5195 18.2826 60.7419 17.6672 61.1887 17.1894C61.6356 16.7116 62.2363 16.4722 62.9929 16.4722C63.7222 16.4722 64.3081 16.7075 64.7518 17.1791C65.1733 17.6374 65.3852 18.2292 65.3852 18.9526ZM64.2396 18.9875C64.2396 18.5405 64.1406 18.1573 63.9435 17.8377C63.7117 17.4514 63.3818 17.2582 62.9529 17.2582C62.5092 17.2582 62.172 17.4514 61.9401 17.8377C61.742 18.1573 61.644 18.5467 61.644 19.007C61.644 19.454 61.7431 19.8372 61.9401 20.1568C62.1794 20.5431 62.5124 20.7363 62.9423 20.7363C63.3639 20.7363 63.6948 20.54 63.933 20.1465C64.1374 19.8208 64.2396 19.4345 64.2396 18.9875Z" fill="white" stroke="white" stroke-width="0.2"/>
<path d="M73.6646 16.5708L72.1101 21.4144H71.0984L70.4545 19.3111C70.2912 18.7861 70.1584 18.2641 70.0551 17.7463H70.0351C69.9392 18.2785 69.8064 18.7995 69.6357 19.3111L68.9518 21.4144H67.9285L66.4668 16.5708H67.6018L68.1635 18.8734C68.2994 19.418 68.4111 19.9369 68.5007 20.428H68.5207C68.6029 20.0232 68.7389 19.5074 68.9307 18.8837L69.6357 16.5718H70.5357L71.2112 18.8344C71.3746 19.3862 71.5073 19.9174 71.6096 20.4291H71.6401C71.7149 19.9307 71.8277 19.3995 71.9774 18.8344L72.5802 16.5718H73.6646V16.5708Z" fill="white" stroke="white" stroke-width="0.2"/>
<path d="M79.3897 21.4145H78.2853V18.6402C78.2853 17.7853 77.9523 17.3579 77.284 17.3579C76.9563 17.3579 76.6919 17.475 76.4864 17.7103C76.283 17.9456 76.1796 18.2231 76.1796 18.5406V21.4135H75.0753V17.9549C75.0753 17.5295 75.0616 17.0681 75.0352 16.5688H76.0058L76.0574 17.3261H76.088C76.2166 17.0908 76.4084 16.8966 76.6603 16.7414C76.9596 16.5606 77.2947 16.4691 77.6614 16.4691C78.1251 16.4691 78.5108 16.615 78.8175 16.9079C79.199 17.2665 79.3897 17.8018 79.3897 18.5128V21.4145Z" fill="white" stroke="white" stroke-width="0.2"/>
<path d="M82.4354 21.4144H81.332V14.3483H82.4354V21.4144Z" fill="white" stroke="white" stroke-width="0.2"/>
<path d="M88.9379 18.9526C88.9379 19.6975 88.7198 20.3078 88.2835 20.7866C87.8261 21.2788 87.2191 21.5244 86.4635 21.5244C85.7332 21.5244 85.1525 21.2891 84.7204 20.8164C84.2884 20.3448 84.0723 19.7499 84.0723 19.0327C84.0723 18.2826 84.2947 17.6672 84.7415 17.1894C85.1883 16.7116 85.789 16.4722 86.5446 16.4722C87.275 16.4722 87.8598 16.7075 88.3046 17.1791C88.7261 17.6374 88.9379 18.2292 88.9379 18.9526ZM87.7913 18.9875C87.7913 18.5405 87.6923 18.1573 87.4952 17.8377C87.2644 17.4514 86.9335 17.2582 86.5056 17.2582C86.0609 17.2582 85.7237 17.4514 85.4929 17.8377C85.2948 18.1573 85.1968 18.5467 85.1968 19.007C85.1968 19.454 85.2958 19.8372 85.4929 20.1568C85.7321 20.5431 86.0651 20.7363 86.4951 20.7363C86.9167 20.7363 87.2465 20.54 87.4847 20.1465C87.6902 19.8208 87.7913 19.4345 87.7913 18.9875Z" fill="white" stroke="white" stroke-width="0.2"/>
<path d="M94.2815 21.4144H93.2898L93.2076 20.8565H93.1771C92.8377 21.3014 92.354 21.5244 91.7259 21.5244C91.2569 21.5244 90.8776 21.3775 90.592 21.0856C90.3327 20.8206 90.2031 20.4907 90.2031 20.0992C90.2031 19.5074 90.456 19.0563 90.965 18.744C91.473 18.4316 92.1875 18.2785 93.1075 18.2857V18.1953C93.1075 17.5572 92.7639 17.2387 92.0758 17.2387C91.5857 17.2387 91.1537 17.3589 90.7806 17.5973L90.5561 16.8904C91.0177 16.6119 91.5879 16.4722 92.2602 16.4722C93.5586 16.4722 94.2098 17.14 94.2098 18.4758V20.2595C94.2098 20.7435 94.2341 21.1288 94.2815 21.4144ZM93.1349 19.7499V19.0029C91.9167 18.9824 91.3075 19.3081 91.3075 19.979C91.3075 20.2318 91.3771 20.4209 91.5194 20.5472C91.6616 20.6736 91.8429 20.7363 92.0589 20.7363C92.3013 20.7363 92.5279 20.6613 92.7344 20.5123C92.942 20.3623 93.0696 20.1722 93.117 19.939C93.1286 19.8866 93.1349 19.8228 93.1349 19.7499Z" fill="white" stroke="white" stroke-width="0.2"/>
<path d="M100.559 21.4144H99.5786L99.527 20.6366H99.4964C99.1834 21.2284 98.6502 21.5243 97.9009 21.5243C97.3023 21.5243 96.8038 21.2952 96.4087 20.8369C96.0135 20.3787 95.8164 19.7837 95.8164 19.0532C95.8164 18.2692 96.0303 17.6342 96.4603 17.1492C96.8766 16.6971 97.3866 16.4711 97.9936 16.4711C98.6607 16.4711 99.1276 16.6899 99.3931 17.1287H99.4142V14.3483H100.52V20.1095C100.52 20.5811 100.533 21.0157 100.559 21.4144ZM99.4142 19.3717V18.5641C99.4142 18.4244 99.4037 18.3113 99.3837 18.225C99.3215 17.9661 99.1876 17.7483 98.9843 17.5726C98.7788 17.3969 98.5311 17.3085 98.2455 17.3085C97.8334 17.3085 97.511 17.4678 97.2739 17.7873C97.0389 18.1069 96.9198 18.5148 96.9198 19.0131C96.9198 19.4919 97.0325 19.8803 97.2591 20.1793C97.4983 20.4979 97.8208 20.6571 98.2244 20.6571C98.587 20.6571 98.8768 20.5246 99.097 20.2585C99.3099 20.0129 99.4142 19.717 99.4142 19.3717Z" fill="white" stroke="white" stroke-width="0.2"/>
<path d="M110.005 18.9526C110.005 19.6975 109.787 20.3078 109.35 20.7866C108.893 21.2788 108.288 21.5244 107.53 21.5244C106.802 21.5244 106.221 21.2891 105.787 20.8164C105.355 20.3448 105.139 19.7499 105.139 19.0327C105.139 18.2826 105.362 17.6672 105.808 17.1894C106.255 16.7116 106.856 16.4722 107.614 16.4722C108.342 16.4722 108.929 16.7075 109.371 17.1791C109.793 17.6374 110.005 18.2292 110.005 18.9526ZM108.86 18.9875C108.86 18.5405 108.761 18.1573 108.564 17.8377C108.331 17.4514 108.002 17.2582 107.573 17.2582C107.13 17.2582 106.793 17.4514 106.56 17.8377C106.362 18.1573 106.264 18.5467 106.264 19.007C106.264 19.454 106.363 19.8372 106.56 20.1568C106.799 20.5431 107.132 20.7363 107.562 20.7363C107.984 20.7363 108.315 20.54 108.554 20.1465C108.757 19.8208 108.86 19.4345 108.86 18.9875Z" fill="white" stroke="white" stroke-width="0.2"/>
<path d="M115.943 21.4145H114.84V18.6402C114.84 17.7853 114.507 17.3579 113.838 17.3579C113.51 17.3579 113.245 17.475 113.041 17.7103C112.836 17.9456 112.734 18.2231 112.734 18.5406V21.4135H111.629V17.9549C111.629 17.5295 111.616 17.0681 111.59 16.5688H112.559L112.611 17.3261H112.642C112.771 17.0908 112.963 16.8966 113.214 16.7414C113.514 16.5606 113.848 16.4691 114.216 16.4691C114.679 16.4691 115.064 16.615 115.371 16.9079C115.754 17.2665 115.943 17.8018 115.943 18.5128V21.4145Z" fill="white" stroke="white" stroke-width="0.2"/>
<path d="M123.376 17.3774H122.16V19.7304C122.16 20.3284 122.376 20.6274 122.804 20.6274C123.002 20.6274 123.166 20.6109 123.296 20.577L123.324 21.3939C123.106 21.474 122.82 21.5141 122.467 21.5141C122.03 21.5141 121.691 21.3846 121.445 21.1257C121.199 20.8668 121.077 20.4311 121.077 19.8197V17.3774H120.35V16.5708H121.077V15.683L122.159 15.3645V16.5698H123.375V17.3774H123.376Z" fill="white" stroke="white" stroke-width="0.2"/>
<path d="M129.221 21.4144H128.115V18.6607C128.115 17.7925 127.782 17.3578 127.115 17.3578C126.603 17.3578 126.253 17.6096 126.061 18.113C126.029 18.2189 126.01 18.3483 126.01 18.5004V21.4134H124.906V14.3483H126.01V17.2674H126.031C126.379 16.7362 126.877 16.4711 127.523 16.4711C127.98 16.4711 128.359 16.617 128.659 16.9098C129.033 17.2746 129.221 17.8171 129.221 18.5343V21.4144Z" fill="white" stroke="white" stroke-width="0.2"/>
<path d="M135.253 18.7635C135.253 18.9566 135.238 19.119 135.212 19.2515H131.9C131.914 19.7303 132.072 20.0951 132.379 20.3479C132.659 20.5739 133.021 20.6869 133.463 20.6869C133.953 20.6869 134.4 20.6109 134.803 20.4578L134.976 21.2058C134.505 21.4052 133.95 21.5048 133.309 21.5048C132.539 21.5048 131.933 21.2839 131.495 20.8421C131.054 20.4003 130.836 19.8074 130.836 19.0635C130.836 18.3329 131.04 17.7247 131.45 17.2397C131.877 16.7218 132.456 16.4629 133.186 16.4629C133.901 16.4629 134.444 16.7218 134.81 17.2397C135.106 17.6507 135.253 18.1593 135.253 18.7635ZM134.199 18.485C134.207 18.1655 134.135 17.8901 133.985 17.6579C133.793 17.3589 133.501 17.2089 133.106 17.2089C132.746 17.2089 132.452 17.3548 132.227 17.6476C132.044 17.8808 131.935 18.1593 131.9 18.485H134.199Z" fill="white" stroke="white" stroke-width="0.2"/>
</svg>
